<mxfile host="app.diagrams.net" modified="2023-05-05T12:05:50.176Z" agent="Mozilla/5.0 (X11; Linux x86_64; rv:102.0) Gecko/20100101 Firefox/102.0" etag="X2opC0sJYBZGKAiIUWT1" version="21.2.3" type="device" pages="2">
  <diagram id="uad5bbuwdI12HdEEa3Cj" name="overview">
    <mxGraphModel dx="1422" dy="1862" grid="1" gridSize="10" guides="1" tooltips="1" connect="1" arrows="1" fold="1" page="1" pageScale="1" pageWidth="850" pageHeight="1100" math="0" shadow="0">
      <root>
        <mxCell id="0" />
        <mxCell id="1" parent="0" />
        <mxCell id="TEhExjwDkZAg6VpUgQMo-3" value="Availability zone" style="sketch=0;outlineConnect=0;gradientColor=none;html=1;whiteSpace=wrap;fontSize=12;fontStyle=0;shape=mxgraph.aws4.group;grIcon=mxgraph.aws4.group_availability_zone;strokeColor=#545B64;fillColor=none;verticalAlign=top;align=left;spacingLeft=30;fontColor=#545B64;dashed=1;strokeWidth=1;" parent="1" vertex="1">
          <mxGeometry x="42" y="-370" width="1598" height="200" as="geometry" />
        </mxCell>
        <mxCell id="mvy_s3-H0GuWnijvQiPO-1" value="VPC egress" style="points=[[0,0],[0.25,0],[0.5,0],[0.75,0],[1,0],[1,0.25],[1,0.5],[1,0.75],[1,1],[0.75,1],[0.5,1],[0.25,1],[0,1],[0,0.75],[0,0.5],[0,0.25]];outlineConnect=0;gradientColor=none;html=1;whiteSpace=wrap;fontSize=12;fontStyle=0;container=1;pointerEvents=0;collapsible=0;recursiveResize=0;shape=mxgraph.aws4.group;grIcon=mxgraph.aws4.group_vpc;strokeColor=#248814;fillColor=none;verticalAlign=top;align=left;spacingLeft=30;fontColor=#AAB7B8;dashed=0;strokeWidth=1;" parent="1" vertex="1">
          <mxGeometry x="80" y="-410" width="600" height="840" as="geometry" />
        </mxCell>
        <mxCell id="3HE5Ov2UQpyYhf-e1CQ4-3" value="Availability zone" style="sketch=0;outlineConnect=0;gradientColor=none;html=1;whiteSpace=wrap;fontSize=12;fontStyle=0;shape=mxgraph.aws4.group;grIcon=mxgraph.aws4.group_availability_zone;strokeColor=#545B64;fillColor=none;verticalAlign=top;align=left;spacingLeft=30;fontColor=#545B64;dashed=1;strokeWidth=1;" parent="mvy_s3-H0GuWnijvQiPO-1" vertex="1">
          <mxGeometry x="-40" y="280" width="1600" height="200" as="geometry" />
        </mxCell>
        <mxCell id="3HE5Ov2UQpyYhf-e1CQ4-4" value="Public subnet" style="points=[[0,0],[0.25,0],[0.5,0],[0.75,0],[1,0],[1,0.25],[1,0.5],[1,0.75],[1,1],[0.75,1],[0.5,1],[0.25,1],[0,1],[0,0.75],[0,0.5],[0,0.25]];outlineConnect=0;gradientColor=none;html=1;whiteSpace=wrap;fontSize=12;fontStyle=0;container=1;pointerEvents=0;collapsible=0;recursiveResize=0;shape=mxgraph.aws4.group;grIcon=mxgraph.aws4.group_security_group;grStroke=0;strokeColor=#248814;fillColor=#E9F3E6;verticalAlign=top;align=left;spacingLeft=30;fontColor=#248814;dashed=0;strokeWidth=1;" parent="mvy_s3-H0GuWnijvQiPO-1" vertex="1">
          <mxGeometry x="80" y="320" width="130" height="120" as="geometry" />
        </mxCell>
        <mxCell id="3HE5Ov2UQpyYhf-e1CQ4-5" value="NAT" style="sketch=0;outlineConnect=0;fontColor=#232F3E;gradientColor=none;fillColor=#4D27AA;strokeColor=none;dashed=0;verticalLabelPosition=bottom;verticalAlign=top;align=center;html=1;fontSize=12;fontStyle=0;aspect=fixed;pointerEvents=1;shape=mxgraph.aws4.nat_gateway;strokeWidth=1;" parent="3HE5Ov2UQpyYhf-e1CQ4-4" vertex="1">
          <mxGeometry x="40" y="40" width="50" height="50" as="geometry" />
        </mxCell>
        <mxCell id="3HE5Ov2UQpyYhf-e1CQ4-1" value="&lt;div&gt;Internet&lt;/div&gt;&lt;div&gt;Gateway&lt;br&gt;&lt;/div&gt;" style="sketch=0;outlineConnect=0;fontColor=#232F3E;gradientColor=none;fillColor=#4D27AA;strokeColor=none;dashed=0;verticalLabelPosition=bottom;verticalAlign=top;align=center;html=1;fontSize=12;fontStyle=0;aspect=fixed;pointerEvents=1;shape=mxgraph.aws4.internet_gateway;" parent="mvy_s3-H0GuWnijvQiPO-1" vertex="1">
          <mxGeometry x="15" y="750" width="50" height="50" as="geometry" />
        </mxCell>
        <mxCell id="39F96CRGOIufhL8smVW2-3" style="edgeStyle=orthogonalEdgeStyle;rounded=0;orthogonalLoop=1;jettySize=auto;html=1;" parent="mvy_s3-H0GuWnijvQiPO-1" source="3HE5Ov2UQpyYhf-e1CQ4-5" target="3HE5Ov2UQpyYhf-e1CQ4-1" edge="1">
          <mxGeometry relative="1" as="geometry" />
        </mxCell>
        <mxCell id="-T1d_Pq61l5wgLVzQ80w-11" value="Private subnet" style="points=[[0,0],[0.25,0],[0.5,0],[0.75,0],[1,0],[1,0.25],[1,0.5],[1,0.75],[1,1],[0.75,1],[0.5,1],[0.25,1],[0,1],[0,0.75],[0,0.5],[0,0.25]];outlineConnect=0;gradientColor=none;html=1;whiteSpace=wrap;fontSize=12;fontStyle=0;container=1;pointerEvents=0;collapsible=0;recursiveResize=0;shape=mxgraph.aws4.group;grIcon=mxgraph.aws4.group_security_group;grStroke=0;strokeColor=#147EBA;fillColor=#E6F2F8;verticalAlign=top;align=left;spacingLeft=30;fontColor=#147EBA;dashed=0;strokeWidth=1;" parent="mvy_s3-H0GuWnijvQiPO-1" vertex="1">
          <mxGeometry x="442" y="80" width="120" height="120" as="geometry" />
        </mxCell>
        <mxCell id="-T1d_Pq61l5wgLVzQ80w-13" value="TGW ENI" style="sketch=0;outlineConnect=0;fontColor=#232F3E;gradientColor=none;fillColor=#4D27AA;strokeColor=none;dashed=0;verticalLabelPosition=bottom;verticalAlign=top;align=center;html=1;fontSize=12;fontStyle=0;aspect=fixed;pointerEvents=1;shape=mxgraph.aws4.elastic_network_interface;strokeWidth=1;" parent="-T1d_Pq61l5wgLVzQ80w-11" vertex="1">
          <mxGeometry x="38" y="40" width="50" height="50" as="geometry" />
        </mxCell>
        <mxCell id="-T1d_Pq61l5wgLVzQ80w-15" value="Private subnet" style="points=[[0,0],[0.25,0],[0.5,0],[0.75,0],[1,0],[1,0.25],[1,0.5],[1,0.75],[1,1],[0.75,1],[0.5,1],[0.25,1],[0,1],[0,0.75],[0,0.5],[0,0.25]];outlineConnect=0;gradientColor=none;html=1;whiteSpace=wrap;fontSize=12;fontStyle=0;container=1;pointerEvents=0;collapsible=0;recursiveResize=0;shape=mxgraph.aws4.group;grIcon=mxgraph.aws4.group_security_group;grStroke=0;strokeColor=#147EBA;fillColor=#E6F2F8;verticalAlign=top;align=left;spacingLeft=30;fontColor=#147EBA;dashed=0;strokeWidth=1;" parent="mvy_s3-H0GuWnijvQiPO-1" vertex="1">
          <mxGeometry x="452" y="320" width="120" height="120" as="geometry" />
        </mxCell>
        <mxCell id="-T1d_Pq61l5wgLVzQ80w-16" value="TGW ENI" style="sketch=0;outlineConnect=0;fontColor=#232F3E;gradientColor=none;fillColor=#4D27AA;strokeColor=none;dashed=0;verticalLabelPosition=bottom;verticalAlign=top;align=center;html=1;fontSize=12;fontStyle=0;aspect=fixed;pointerEvents=1;shape=mxgraph.aws4.elastic_network_interface;strokeWidth=1;" parent="-T1d_Pq61l5wgLVzQ80w-15" vertex="1">
          <mxGeometry x="38" y="40" width="50" height="50" as="geometry" />
        </mxCell>
        <mxCell id="-T1d_Pq61l5wgLVzQ80w-17" value="Private subnet" style="points=[[0,0],[0.25,0],[0.5,0],[0.75,0],[1,0],[1,0.25],[1,0.5],[1,0.75],[1,1],[0.75,1],[0.5,1],[0.25,1],[0,1],[0,0.75],[0,0.5],[0,0.25]];outlineConnect=0;gradientColor=none;html=1;whiteSpace=wrap;fontSize=12;fontStyle=0;container=1;pointerEvents=0;collapsible=0;recursiveResize=0;shape=mxgraph.aws4.group;grIcon=mxgraph.aws4.group_security_group;grStroke=0;strokeColor=#147EBA;fillColor=#E6F2F8;verticalAlign=top;align=left;spacingLeft=30;fontColor=#147EBA;dashed=0;strokeWidth=1;" parent="mvy_s3-H0GuWnijvQiPO-1" vertex="1">
          <mxGeometry x="280" y="320" width="120" height="120" as="geometry" />
        </mxCell>
        <mxCell id="-T1d_Pq61l5wgLVzQ80w-18" value="Firewall" style="sketch=0;points=[[0,0,0],[0.25,0,0],[0.5,0,0],[0.75,0,0],[1,0,0],[0,1,0],[0.25,1,0],[0.5,1,0],[0.75,1,0],[1,1,0],[0,0.25,0],[0,0.5,0],[0,0.75,0],[1,0.25,0],[1,0.5,0],[1,0.75,0]];outlineConnect=0;fontColor=#232F3E;gradientColor=#F54749;gradientDirection=north;fillColor=#C7131F;strokeColor=#ffffff;dashed=0;verticalLabelPosition=bottom;verticalAlign=top;align=center;html=1;fontSize=12;fontStyle=0;aspect=fixed;shape=mxgraph.aws4.resourceIcon;resIcon=mxgraph.aws4.network_firewall;strokeWidth=1;" parent="-T1d_Pq61l5wgLVzQ80w-17" vertex="1">
          <mxGeometry x="35" y="40" width="50" height="50" as="geometry" />
        </mxCell>
        <mxCell id="-T1d_Pq61l5wgLVzQ80w-24" style="edgeStyle=orthogonalEdgeStyle;rounded=0;orthogonalLoop=1;jettySize=auto;html=1;" parent="mvy_s3-H0GuWnijvQiPO-1" source="-T1d_Pq61l5wgLVzQ80w-18" target="3HE5Ov2UQpyYhf-e1CQ4-5" edge="1">
          <mxGeometry relative="1" as="geometry" />
        </mxCell>
        <mxCell id="-T1d_Pq61l5wgLVzQ80w-25" style="edgeStyle=orthogonalEdgeStyle;rounded=0;orthogonalLoop=1;jettySize=auto;html=1;entryX=1;entryY=0.5;entryDx=0;entryDy=0;entryPerimeter=0;" parent="mvy_s3-H0GuWnijvQiPO-1" source="-T1d_Pq61l5wgLVzQ80w-16" target="-T1d_Pq61l5wgLVzQ80w-18" edge="1">
          <mxGeometry relative="1" as="geometry" />
        </mxCell>
        <mxCell id="TEhExjwDkZAg6VpUgQMo-1" value="Public subnet" style="points=[[0,0],[0.25,0],[0.5,0],[0.75,0],[1,0],[1,0.25],[1,0.5],[1,0.75],[1,1],[0.75,1],[0.5,1],[0.25,1],[0,1],[0,0.75],[0,0.5],[0,0.25]];outlineConnect=0;gradientColor=none;html=1;whiteSpace=wrap;fontSize=12;fontStyle=0;container=1;pointerEvents=0;collapsible=0;recursiveResize=0;shape=mxgraph.aws4.group;grIcon=mxgraph.aws4.group_security_group;grStroke=0;strokeColor=#248814;fillColor=#E9F3E6;verticalAlign=top;align=left;spacingLeft=30;fontColor=#248814;dashed=0;strokeWidth=1;" parent="1" vertex="1">
          <mxGeometry x="160" y="-330" width="130" height="120" as="geometry" />
        </mxCell>
        <mxCell id="3gyQ504CFTH-4lbGsw-3-1" value="NAT" style="sketch=0;outlineConnect=0;fontColor=#232F3E;gradientColor=none;fillColor=#4D27AA;strokeColor=none;dashed=0;verticalLabelPosition=bottom;verticalAlign=top;align=center;html=1;fontSize=12;fontStyle=0;aspect=fixed;pointerEvents=1;shape=mxgraph.aws4.nat_gateway;strokeWidth=1;" parent="TEhExjwDkZAg6VpUgQMo-1" vertex="1">
          <mxGeometry x="40" y="40" width="50" height="50" as="geometry" />
        </mxCell>
        <mxCell id="TEhExjwDkZAg6VpUgQMo-2" value="Private subnet" style="points=[[0,0],[0.25,0],[0.5,0],[0.75,0],[1,0],[1,0.25],[1,0.5],[1,0.75],[1,1],[0.75,1],[0.5,1],[0.25,1],[0,1],[0,0.75],[0,0.5],[0,0.25]];outlineConnect=0;gradientColor=none;html=1;whiteSpace=wrap;fontSize=12;fontStyle=0;container=1;pointerEvents=0;collapsible=0;recursiveResize=0;shape=mxgraph.aws4.group;grIcon=mxgraph.aws4.group_security_group;grStroke=0;strokeColor=#147EBA;fillColor=#E6F2F8;verticalAlign=top;align=left;spacingLeft=30;fontColor=#147EBA;dashed=0;strokeWidth=1;" parent="1" vertex="1">
          <mxGeometry x="350" y="-330" width="120" height="120" as="geometry" />
        </mxCell>
        <mxCell id="y9bNS4eyc0Dm0tp-QQuw-1" value="Firewall" style="sketch=0;points=[[0,0,0],[0.25,0,0],[0.5,0,0],[0.75,0,0],[1,0,0],[0,1,0],[0.25,1,0],[0.5,1,0],[0.75,1,0],[1,1,0],[0,0.25,0],[0,0.5,0],[0,0.75,0],[1,0.25,0],[1,0.5,0],[1,0.75,0]];outlineConnect=0;fontColor=#232F3E;gradientColor=#F54749;gradientDirection=north;fillColor=#C7131F;strokeColor=#ffffff;dashed=0;verticalLabelPosition=bottom;verticalAlign=top;align=center;html=1;fontSize=12;fontStyle=0;aspect=fixed;shape=mxgraph.aws4.resourceIcon;resIcon=mxgraph.aws4.network_firewall;strokeWidth=1;" parent="TEhExjwDkZAg6VpUgQMo-2" vertex="1">
          <mxGeometry x="35" y="40" width="50" height="50" as="geometry" />
        </mxCell>
        <mxCell id="3HE5Ov2UQpyYhf-e1CQ4-2" style="edgeStyle=orthogonalEdgeStyle;rounded=0;orthogonalLoop=1;jettySize=auto;html=1;" parent="1" source="y9bNS4eyc0Dm0tp-QQuw-1" target="3gyQ504CFTH-4lbGsw-3-1" edge="1">
          <mxGeometry relative="1" as="geometry" />
        </mxCell>
        <mxCell id="3HE5Ov2UQpyYhf-e1CQ4-10" value="Availability zone" style="sketch=0;outlineConnect=0;gradientColor=none;html=1;whiteSpace=wrap;fontSize=12;fontStyle=0;shape=mxgraph.aws4.group;grIcon=mxgraph.aws4.group_availability_zone;strokeColor=#545B64;fillColor=none;verticalAlign=top;align=left;spacingLeft=30;fontColor=#545B64;dashed=1;strokeWidth=1;" parent="1" vertex="1">
          <mxGeometry x="42" y="110" width="1598" height="200" as="geometry" />
        </mxCell>
        <mxCell id="3HE5Ov2UQpyYhf-e1CQ4-11" value="Public subnet" style="points=[[0,0],[0.25,0],[0.5,0],[0.75,0],[1,0],[1,0.25],[1,0.5],[1,0.75],[1,1],[0.75,1],[0.5,1],[0.25,1],[0,1],[0,0.75],[0,0.5],[0,0.25]];outlineConnect=0;gradientColor=none;html=1;whiteSpace=wrap;fontSize=12;fontStyle=0;container=1;pointerEvents=0;collapsible=0;recursiveResize=0;shape=mxgraph.aws4.group;grIcon=mxgraph.aws4.group_security_group;grStroke=0;strokeColor=#248814;fillColor=#E9F3E6;verticalAlign=top;align=left;spacingLeft=30;fontColor=#248814;dashed=0;strokeWidth=1;" parent="1" vertex="1">
          <mxGeometry x="160" y="150" width="130" height="120" as="geometry" />
        </mxCell>
        <mxCell id="3HE5Ov2UQpyYhf-e1CQ4-12" value="NAT" style="sketch=0;outlineConnect=0;fontColor=#232F3E;gradientColor=none;fillColor=#4D27AA;strokeColor=none;dashed=0;verticalLabelPosition=bottom;verticalAlign=top;align=center;html=1;fontSize=12;fontStyle=0;aspect=fixed;pointerEvents=1;shape=mxgraph.aws4.nat_gateway;strokeWidth=1;" parent="3HE5Ov2UQpyYhf-e1CQ4-11" vertex="1">
          <mxGeometry x="40" y="40" width="50" height="50" as="geometry" />
        </mxCell>
        <mxCell id="39F96CRGOIufhL8smVW2-2" style="edgeStyle=orthogonalEdgeStyle;rounded=0;orthogonalLoop=1;jettySize=auto;html=1;" parent="1" source="3gyQ504CFTH-4lbGsw-3-1" target="3HE5Ov2UQpyYhf-e1CQ4-1" edge="1">
          <mxGeometry relative="1" as="geometry" />
        </mxCell>
        <mxCell id="39F96CRGOIufhL8smVW2-4" style="edgeStyle=orthogonalEdgeStyle;rounded=0;orthogonalLoop=1;jettySize=auto;html=1;" parent="1" source="3HE5Ov2UQpyYhf-e1CQ4-12" target="3HE5Ov2UQpyYhf-e1CQ4-1" edge="1">
          <mxGeometry relative="1" as="geometry" />
        </mxCell>
        <mxCell id="8CUBh1B-P9i6UMyQ1_VA-18" style="edgeStyle=orthogonalEdgeStyle;rounded=0;orthogonalLoop=1;jettySize=auto;html=1;entryX=0;entryY=0.5;entryDx=0;entryDy=0;entryPerimeter=0;" parent="1" source="mEX8YMI9ewZTBotOx9i--11" target="Nfd40_HTB5JFDx6Zlok1-2" edge="1">
          <mxGeometry relative="1" as="geometry">
            <Array as="points">
              <mxPoint x="307" y="515" />
            </Array>
          </mxGeometry>
        </mxCell>
        <mxCell id="mEX8YMI9ewZTBotOx9i--11" value="CloudFront" style="sketch=0;points=[[0,0,0],[0.25,0,0],[0.5,0,0],[0.75,0,0],[1,0,0],[0,1,0],[0.25,1,0],[0.5,1,0],[0.75,1,0],[1,1,0],[0,0.25,0],[0,0.5,0],[0,0.75,0],[1,0.25,0],[1,0.5,0],[1,0.75,0]];outlineConnect=0;fontColor=#232F3E;gradientColor=#945DF2;gradientDirection=north;fillColor=#5A30B5;strokeColor=#ffffff;dashed=0;verticalLabelPosition=bottom;verticalAlign=top;align=center;html=1;fontSize=12;fontStyle=0;aspect=fixed;shape=mxgraph.aws4.resourceIcon;resIcon=mxgraph.aws4.cloudfront;strokeWidth=1;" parent="1" vertex="1">
          <mxGeometry x="282" y="620" width="50" height="50" as="geometry" />
        </mxCell>
        <mxCell id="8CUBh1B-P9i6UMyQ1_VA-20" value="" style="edgeStyle=orthogonalEdgeStyle;rounded=0;orthogonalLoop=1;jettySize=auto;html=1;" parent="1" source="mEX8YMI9ewZTBotOx9i--12" target="Nfd40_HTB5JFDx6Zlok1-1" edge="1">
          <mxGeometry relative="1" as="geometry" />
        </mxCell>
        <mxCell id="mEX8YMI9ewZTBotOx9i--12" value="WAF" style="sketch=0;points=[[0,0,0],[0.25,0,0],[0.5,0,0],[0.75,0,0],[1,0,0],[0,1,0],[0.25,1,0],[0.5,1,0],[0.75,1,0],[1,1,0],[0,0.25,0],[0,0.5,0],[0,0.75,0],[1,0.25,0],[1,0.5,0],[1,0.75,0]];outlineConnect=0;fontColor=#232F3E;gradientColor=#F54749;gradientDirection=north;fillColor=#C7131F;strokeColor=#ffffff;dashed=0;verticalLabelPosition=top;verticalAlign=bottom;align=center;html=1;fontSize=12;fontStyle=0;aspect=fixed;shape=mxgraph.aws4.resourceIcon;resIcon=mxgraph.aws4.waf;strokeWidth=1;labelPosition=center;" parent="1" vertex="1">
          <mxGeometry x="442" y="620" width="50" height="50" as="geometry" />
        </mxCell>
        <mxCell id="-T1d_Pq61l5wgLVzQ80w-37" style="edgeStyle=orthogonalEdgeStyle;rounded=0;orthogonalLoop=1;jettySize=auto;html=1;startArrow=none;" parent="1" source="-T1d_Pq61l5wgLVzQ80w-38" target="-T1d_Pq61l5wgLVzQ80w-35" edge="1">
          <mxGeometry relative="1" as="geometry" />
        </mxCell>
        <mxCell id="Nfd40_HTB5JFDx6Zlok1-1" value="API Gateway" style="sketch=0;points=[[0,0,0],[0.25,0,0],[0.5,0,0],[0.75,0,0],[1,0,0],[0,1,0],[0.25,1,0],[0.5,1,0],[0.75,1,0],[1,1,0],[0,0.25,0],[0,0.5,0],[0,0.75,0],[1,0.25,0],[1,0.5,0],[1,0.75,0]];outlineConnect=0;fontColor=#232F3E;gradientColor=#945DF2;gradientDirection=north;fillColor=#5A30B5;strokeColor=#ffffff;dashed=0;verticalLabelPosition=bottom;verticalAlign=top;align=center;html=1;fontSize=12;fontStyle=0;aspect=fixed;shape=mxgraph.aws4.resourceIcon;resIcon=mxgraph.aws4.api_gateway;" parent="1" vertex="1">
          <mxGeometry x="582" y="620" width="50" height="50" as="geometry" />
        </mxCell>
        <mxCell id="Nfd40_HTB5JFDx6Zlok1-2" value="Origin" style="sketch=0;points=[[0,0,0],[0.25,0,0],[0.5,0,0],[0.75,0,0],[1,0,0],[0,1,0],[0.25,1,0],[0.5,1,0],[0.75,1,0],[1,1,0],[0,0.25,0],[0,0.5,0],[0,0.75,0],[1,0.25,0],[1,0.5,0],[1,0.75,0]];outlineConnect=0;fontColor=#232F3E;gradientColor=#60A337;gradientDirection=north;fillColor=#277116;strokeColor=#ffffff;dashed=0;verticalLabelPosition=bottom;verticalAlign=top;align=center;html=1;fontSize=12;fontStyle=0;aspect=fixed;shape=mxgraph.aws4.resourceIcon;resIcon=mxgraph.aws4.s3;strokeWidth=1;" parent="1" vertex="1">
          <mxGeometry x="407" y="490" width="50" height="50" as="geometry" />
        </mxCell>
        <mxCell id="rYe-QfnL6kQYMX3p67Vk-8" style="edgeStyle=orthogonalEdgeStyle;rounded=0;orthogonalLoop=1;jettySize=auto;html=1;exitX=1;exitY=1;exitDx=0;exitDy=0;entryX=0;entryY=0.5;entryDx=0;entryDy=0;entryPerimeter=0;" parent="1" source="8CUBh1B-P9i6UMyQ1_VA-25" target="rYe-QfnL6kQYMX3p67Vk-2" edge="1">
          <mxGeometry relative="1" as="geometry" />
        </mxCell>
        <mxCell id="Nfd40_HTB5JFDx6Zlok1-3" value="VPC application" style="points=[[0,0],[0.25,0],[0.5,0],[0.75,0],[1,0],[1,0.25],[1,0.5],[1,0.75],[1,1],[0.75,1],[0.5,1],[0.25,1],[0,1],[0,0.75],[0,0.5],[0,0.25]];outlineConnect=0;gradientColor=none;html=1;whiteSpace=wrap;fontSize=12;fontStyle=0;container=1;pointerEvents=0;collapsible=0;recursiveResize=0;shape=mxgraph.aws4.group;grIcon=mxgraph.aws4.group_vpc;strokeColor=#248814;fillColor=none;verticalAlign=top;align=left;spacingLeft=30;fontColor=#AAB7B8;dashed=0;strokeWidth=1;" parent="1" vertex="1">
          <mxGeometry x="762" y="-410" width="200" height="928" as="geometry" />
        </mxCell>
        <mxCell id="8CUBh1B-P9i6UMyQ1_VA-1" value="Private subnet" style="points=[[0,0],[0.25,0],[0.5,0],[0.75,0],[1,0],[1,0.25],[1,0.5],[1,0.75],[1,1],[0.75,1],[0.5,1],[0.25,1],[0,1],[0,0.75],[0,0.5],[0,0.25]];outlineConnect=0;gradientColor=none;html=1;whiteSpace=wrap;fontSize=12;fontStyle=0;container=1;pointerEvents=0;collapsible=0;recursiveResize=0;shape=mxgraph.aws4.group;grIcon=mxgraph.aws4.group_security_group;grStroke=0;strokeColor=#147EBA;fillColor=#E6F2F8;verticalAlign=top;align=left;spacingLeft=30;fontColor=#147EBA;dashed=0;strokeWidth=1;" parent="Nfd40_HTB5JFDx6Zlok1-3" vertex="1">
          <mxGeometry x="40" y="80" width="120" height="120" as="geometry" />
        </mxCell>
        <mxCell id="8CUBh1B-P9i6UMyQ1_VA-4" value="Fargate" style="sketch=0;points=[[0,0,0],[0.25,0,0],[0.5,0,0],[0.75,0,0],[1,0,0],[0,1,0],[0.25,1,0],[0.5,1,0],[0.75,1,0],[1,1,0],[0,0.25,0],[0,0.5,0],[0,0.75,0],[1,0.25,0],[1,0.5,0],[1,0.75,0]];outlineConnect=0;fontColor=#232F3E;gradientColor=#F78E04;gradientDirection=north;fillColor=#D05C17;strokeColor=#ffffff;dashed=0;verticalLabelPosition=bottom;verticalAlign=top;align=center;html=1;fontSize=12;fontStyle=0;aspect=fixed;shape=mxgraph.aws4.resourceIcon;resIcon=mxgraph.aws4.fargate;strokeWidth=1;" parent="8CUBh1B-P9i6UMyQ1_VA-1" vertex="1">
          <mxGeometry x="35" y="40" width="50" height="50" as="geometry" />
        </mxCell>
        <mxCell id="8CUBh1B-P9i6UMyQ1_VA-5" value="Private subnet" style="points=[[0,0],[0.25,0],[0.5,0],[0.75,0],[1,0],[1,0.25],[1,0.5],[1,0.75],[1,1],[0.75,1],[0.5,1],[0.25,1],[0,1],[0,0.75],[0,0.5],[0,0.25]];outlineConnect=0;gradientColor=none;html=1;whiteSpace=wrap;fontSize=12;fontStyle=0;container=1;pointerEvents=0;collapsible=0;recursiveResize=0;shape=mxgraph.aws4.group;grIcon=mxgraph.aws4.group_security_group;grStroke=0;strokeColor=#147EBA;fillColor=#E6F2F8;verticalAlign=top;align=left;spacingLeft=30;fontColor=#147EBA;dashed=0;strokeWidth=1;" parent="Nfd40_HTB5JFDx6Zlok1-3" vertex="1">
          <mxGeometry x="40" y="320" width="120" height="120" as="geometry" />
        </mxCell>
        <mxCell id="8CUBh1B-P9i6UMyQ1_VA-6" value="Fargate" style="sketch=0;points=[[0,0,0],[0.25,0,0],[0.5,0,0],[0.75,0,0],[1,0,0],[0,1,0],[0.25,1,0],[0.5,1,0],[0.75,1,0],[1,1,0],[0,0.25,0],[0,0.5,0],[0,0.75,0],[1,0.25,0],[1,0.5,0],[1,0.75,0]];outlineConnect=0;fontColor=#232F3E;gradientColor=#F78E04;gradientDirection=north;fillColor=#D05C17;strokeColor=#ffffff;dashed=0;verticalLabelPosition=bottom;verticalAlign=top;align=center;html=1;fontSize=12;fontStyle=0;aspect=fixed;shape=mxgraph.aws4.resourceIcon;resIcon=mxgraph.aws4.fargate;strokeWidth=1;" parent="8CUBh1B-P9i6UMyQ1_VA-5" vertex="1">
          <mxGeometry x="35" y="40" width="50" height="50" as="geometry" />
        </mxCell>
        <mxCell id="8CUBh1B-P9i6UMyQ1_VA-7" value="Private subnet" style="points=[[0,0],[0.25,0],[0.5,0],[0.75,0],[1,0],[1,0.25],[1,0.5],[1,0.75],[1,1],[0.75,1],[0.5,1],[0.25,1],[0,1],[0,0.75],[0,0.5],[0,0.25]];outlineConnect=0;gradientColor=none;html=1;whiteSpace=wrap;fontSize=12;fontStyle=0;container=1;pointerEvents=0;collapsible=0;recursiveResize=0;shape=mxgraph.aws4.group;grIcon=mxgraph.aws4.group_security_group;grStroke=0;strokeColor=#147EBA;fillColor=#E6F2F8;verticalAlign=top;align=left;spacingLeft=30;fontColor=#147EBA;dashed=0;strokeWidth=1;" parent="Nfd40_HTB5JFDx6Zlok1-3" vertex="1">
          <mxGeometry x="40" y="560" width="120" height="120" as="geometry" />
        </mxCell>
        <mxCell id="8CUBh1B-P9i6UMyQ1_VA-8" value="Fargate" style="sketch=0;points=[[0,0,0],[0.25,0,0],[0.5,0,0],[0.75,0,0],[1,0,0],[0,1,0],[0.25,1,0],[0.5,1,0],[0.75,1,0],[1,1,0],[0,0.25,0],[0,0.5,0],[0,0.75,0],[1,0.25,0],[1,0.5,0],[1,0.75,0]];outlineConnect=0;fontColor=#232F3E;gradientColor=#F78E04;gradientDirection=north;fillColor=#D05C17;strokeColor=#ffffff;dashed=0;verticalLabelPosition=bottom;verticalAlign=top;align=center;html=1;fontSize=12;fontStyle=0;aspect=fixed;shape=mxgraph.aws4.resourceIcon;resIcon=mxgraph.aws4.fargate;strokeWidth=1;" parent="8CUBh1B-P9i6UMyQ1_VA-7" vertex="1">
          <mxGeometry x="35" y="40" width="50" height="50" as="geometry" />
        </mxCell>
        <mxCell id="8CUBh1B-P9i6UMyQ1_VA-25" value="" style="rounded=0;whiteSpace=wrap;html=1;strokeColor=#FFB570;strokeWidth=3;fillColor=none;" parent="Nfd40_HTB5JFDx6Zlok1-3" vertex="1">
          <mxGeometry x="20" y="60" width="160" height="740" as="geometry" />
        </mxCell>
        <mxCell id="8CUBh1B-P9i6UMyQ1_VA-23" value="EKS" style="sketch=0;points=[[0,0,0],[0.25,0,0],[0.5,0,0],[0.75,0,0],[1,0,0],[0,1,0],[0.25,1,0],[0.5,1,0],[0.75,1,0],[1,1,0],[0,0.25,0],[0,0.5,0],[0,0.75,0],[1,0.25,0],[1,0.5,0],[1,0.75,0]];outlineConnect=0;fontColor=#232F3E;gradientColor=#F78E04;gradientDirection=north;fillColor=#D05C17;strokeColor=#ffffff;dashed=0;verticalLabelPosition=middle;verticalAlign=middle;align=left;html=1;fontSize=12;fontStyle=0;aspect=fixed;shape=mxgraph.aws4.resourceIcon;resIcon=mxgraph.aws4.eks;strokeWidth=1;labelPosition=right;" parent="Nfd40_HTB5JFDx6Zlok1-3" vertex="1">
          <mxGeometry x="30" y="740" width="50" height="50" as="geometry" />
        </mxCell>
        <mxCell id="-T1d_Pq61l5wgLVzQ80w-36" style="edgeStyle=orthogonalEdgeStyle;rounded=0;orthogonalLoop=1;jettySize=auto;html=1;entryX=0.5;entryY=1;entryDx=0;entryDy=0;" parent="Nfd40_HTB5JFDx6Zlok1-3" source="-T1d_Pq61l5wgLVzQ80w-35" target="8CUBh1B-P9i6UMyQ1_VA-25" edge="1">
          <mxGeometry relative="1" as="geometry" />
        </mxCell>
        <mxCell id="-T1d_Pq61l5wgLVzQ80w-35" value="NLB" style="sketch=0;outlineConnect=0;fontColor=#232F3E;gradientColor=none;fillColor=#4D27AA;strokeColor=none;dashed=0;verticalLabelPosition=middle;verticalAlign=middle;align=right;html=1;fontSize=12;fontStyle=0;aspect=fixed;pointerEvents=1;shape=mxgraph.aws4.network_load_balancer;strokeWidth=3;labelPosition=left;" parent="Nfd40_HTB5JFDx6Zlok1-3" vertex="1">
          <mxGeometry x="75" y="850" width="50" height="50" as="geometry" />
        </mxCell>
        <mxCell id="8CUBh1B-P9i6UMyQ1_VA-9" value="VPC data" style="points=[[0,0],[0.25,0],[0.5,0],[0.75,0],[1,0],[1,0.25],[1,0.5],[1,0.75],[1,1],[0.75,1],[0.5,1],[0.25,1],[0,1],[0,0.75],[0,0.5],[0,0.25]];outlineConnect=0;gradientColor=none;html=1;whiteSpace=wrap;fontSize=12;fontStyle=0;container=1;pointerEvents=0;collapsible=0;recursiveResize=0;shape=mxgraph.aws4.group;grIcon=mxgraph.aws4.group_vpc;strokeColor=#248814;fillColor=none;verticalAlign=top;align=left;spacingLeft=30;fontColor=#AAB7B8;dashed=0;strokeWidth=1;" parent="1" vertex="1">
          <mxGeometry x="1042" y="-410" width="578" height="840" as="geometry" />
        </mxCell>
        <mxCell id="8CUBh1B-P9i6UMyQ1_VA-10" value="Private subnet" style="points=[[0,0],[0.25,0],[0.5,0],[0.75,0],[1,0],[1,0.25],[1,0.5],[1,0.75],[1,1],[0.75,1],[0.5,1],[0.25,1],[0,1],[0,0.75],[0,0.5],[0,0.25]];outlineConnect=0;gradientColor=none;html=1;whiteSpace=wrap;fontSize=12;fontStyle=0;container=1;pointerEvents=0;collapsible=0;recursiveResize=0;shape=mxgraph.aws4.group;grIcon=mxgraph.aws4.group_security_group;grStroke=0;strokeColor=#147EBA;fillColor=#E6F2F8;verticalAlign=top;align=left;spacingLeft=30;fontColor=#147EBA;dashed=0;strokeWidth=1;" parent="8CUBh1B-P9i6UMyQ1_VA-9" vertex="1">
          <mxGeometry x="40" y="80" width="500" height="120" as="geometry" />
        </mxCell>
        <mxCell id="8CUBh1B-P9i6UMyQ1_VA-16" value="db.serverless" style="sketch=0;points=[[0,0,0],[0.25,0,0],[0.5,0,0],[0.75,0,0],[1,0,0],[0,1,0],[0.25,1,0],[0.5,1,0],[0.75,1,0],[1,1,0],[0,0.25,0],[0,0.5,0],[0,0.75,0],[1,0.25,0],[1,0.5,0],[1,0.75,0]];outlineConnect=0;fontColor=#232F3E;gradientColor=#4D72F3;gradientDirection=north;fillColor=#3334B9;strokeColor=#ffffff;dashed=0;verticalLabelPosition=bottom;verticalAlign=top;align=center;html=1;fontSize=12;fontStyle=0;aspect=fixed;shape=mxgraph.aws4.resourceIcon;resIcon=mxgraph.aws4.aurora;strokeWidth=1;" parent="8CUBh1B-P9i6UMyQ1_VA-10" vertex="1">
          <mxGeometry x="35" y="40" width="50" height="50" as="geometry" />
        </mxCell>
        <mxCell id="rYe-QfnL6kQYMX3p67Vk-7" value="serverless" style="sketch=0;points=[[0,0,0],[0.25,0,0],[0.5,0,0],[0.75,0,0],[1,0,0],[0,1,0],[0.25,1,0],[0.5,1,0],[0.75,1,0],[1,1,0],[0,0.25,0],[0,0.5,0],[0,0.75,0],[1,0.25,0],[1,0.5,0],[1,0.75,0]];outlineConnect=0;fontColor=#232F3E;gradientColor=#945DF2;gradientDirection=north;fillColor=#5A30B5;strokeColor=#ffffff;dashed=0;verticalLabelPosition=bottom;verticalAlign=top;align=center;html=1;fontSize=12;fontStyle=0;aspect=fixed;shape=mxgraph.aws4.resourceIcon;resIcon=mxgraph.aws4.serverless;strokeWidth=3;" parent="8CUBh1B-P9i6UMyQ1_VA-10" vertex="1">
          <mxGeometry x="408" y="35" width="50" height="50" as="geometry" />
        </mxCell>
        <mxCell id="8CUBh1B-P9i6UMyQ1_VA-14" value="Private subnet" style="points=[[0,0],[0.25,0],[0.5,0],[0.75,0],[1,0],[1,0.25],[1,0.5],[1,0.75],[1,1],[0.75,1],[0.5,1],[0.25,1],[0,1],[0,0.75],[0,0.5],[0,0.25]];outlineConnect=0;gradientColor=none;html=1;whiteSpace=wrap;fontSize=12;fontStyle=0;container=1;pointerEvents=0;collapsible=0;recursiveResize=0;shape=mxgraph.aws4.group;grIcon=mxgraph.aws4.group_security_group;grStroke=0;strokeColor=#147EBA;fillColor=#E6F2F8;verticalAlign=top;align=left;spacingLeft=30;fontColor=#147EBA;dashed=0;strokeWidth=1;" parent="8CUBh1B-P9i6UMyQ1_VA-9" vertex="1">
          <mxGeometry x="40" y="560" width="500" height="120" as="geometry" />
        </mxCell>
        <mxCell id="8CUBh1B-P9i6UMyQ1_VA-22" value="db.serverless" style="sketch=0;points=[[0,0,0],[0.25,0,0],[0.5,0,0],[0.75,0,0],[1,0,0],[0,1,0],[0.25,1,0],[0.5,1,0],[0.75,1,0],[1,1,0],[0,0.25,0],[0,0.5,0],[0,0.75,0],[1,0.25,0],[1,0.5,0],[1,0.75,0]];outlineConnect=0;fontColor=#232F3E;gradientColor=#4D72F3;gradientDirection=north;fillColor=#3334B9;strokeColor=#ffffff;dashed=0;verticalLabelPosition=bottom;verticalAlign=top;align=center;html=1;fontSize=12;fontStyle=0;aspect=fixed;shape=mxgraph.aws4.resourceIcon;resIcon=mxgraph.aws4.aurora;strokeWidth=1;" parent="8CUBh1B-P9i6UMyQ1_VA-14" vertex="1">
          <mxGeometry x="35" y="40" width="50" height="50" as="geometry" />
        </mxCell>
        <mxCell id="rYe-QfnL6kQYMX3p67Vk-5" value="serverless" style="sketch=0;points=[[0,0,0],[0.25,0,0],[0.5,0,0],[0.75,0,0],[1,0,0],[0,1,0],[0.25,1,0],[0.5,1,0],[0.75,1,0],[1,1,0],[0,0.25,0],[0,0.5,0],[0,0.75,0],[1,0.25,0],[1,0.5,0],[1,0.75,0]];outlineConnect=0;fontColor=#232F3E;gradientColor=#945DF2;gradientDirection=north;fillColor=#5A30B5;strokeColor=#ffffff;dashed=0;verticalLabelPosition=bottom;verticalAlign=top;align=center;html=1;fontSize=12;fontStyle=0;aspect=fixed;shape=mxgraph.aws4.resourceIcon;resIcon=mxgraph.aws4.serverless;strokeWidth=3;" parent="8CUBh1B-P9i6UMyQ1_VA-14" vertex="1">
          <mxGeometry x="408" y="35" width="50" height="50" as="geometry" />
        </mxCell>
        <mxCell id="8CUBh1B-P9i6UMyQ1_VA-12" value="Private subnet" style="points=[[0,0],[0.25,0],[0.5,0],[0.75,0],[1,0],[1,0.25],[1,0.5],[1,0.75],[1,1],[0.75,1],[0.5,1],[0.25,1],[0,1],[0,0.75],[0,0.5],[0,0.25]];outlineConnect=0;gradientColor=none;html=1;whiteSpace=wrap;fontSize=12;fontStyle=0;container=1;pointerEvents=0;collapsible=0;recursiveResize=0;shape=mxgraph.aws4.group;grIcon=mxgraph.aws4.group_security_group;grStroke=0;strokeColor=#147EBA;fillColor=#E6F2F8;verticalAlign=top;align=left;spacingLeft=30;fontColor=#147EBA;dashed=0;strokeWidth=1;" parent="8CUBh1B-P9i6UMyQ1_VA-9" vertex="1">
          <mxGeometry x="40" y="320" width="500" height="120" as="geometry" />
        </mxCell>
        <mxCell id="8CUBh1B-P9i6UMyQ1_VA-21" value="db.serverless" style="sketch=0;points=[[0,0,0],[0.25,0,0],[0.5,0,0],[0.75,0,0],[1,0,0],[0,1,0],[0.25,1,0],[0.5,1,0],[0.75,1,0],[1,1,0],[0,0.25,0],[0,0.5,0],[0,0.75,0],[1,0.25,0],[1,0.5,0],[1,0.75,0]];outlineConnect=0;fontColor=#232F3E;gradientColor=#4D72F3;gradientDirection=north;fillColor=#3334B9;strokeColor=#ffffff;dashed=0;verticalLabelPosition=bottom;verticalAlign=top;align=center;html=1;fontSize=12;fontStyle=0;aspect=fixed;shape=mxgraph.aws4.resourceIcon;resIcon=mxgraph.aws4.aurora;strokeWidth=1;" parent="8CUBh1B-P9i6UMyQ1_VA-12" vertex="1">
          <mxGeometry x="35" y="35" width="50" height="50" as="geometry" />
        </mxCell>
        <mxCell id="rYe-QfnL6kQYMX3p67Vk-6" value="serverless" style="sketch=0;points=[[0,0,0],[0.25,0,0],[0.5,0,0],[0.75,0,0],[1,0,0],[0,1,0],[0.25,1,0],[0.5,1,0],[0.75,1,0],[1,1,0],[0,0.25,0],[0,0.5,0],[0,0.75,0],[1,0.25,0],[1,0.5,0],[1,0.75,0]];outlineConnect=0;fontColor=#232F3E;gradientColor=#945DF2;gradientDirection=north;fillColor=#5A30B5;strokeColor=#ffffff;dashed=0;verticalLabelPosition=bottom;verticalAlign=top;align=center;html=1;fontSize=12;fontStyle=0;aspect=fixed;shape=mxgraph.aws4.resourceIcon;resIcon=mxgraph.aws4.serverless;strokeWidth=3;" parent="8CUBh1B-P9i6UMyQ1_VA-12" vertex="1">
          <mxGeometry x="408" y="35" width="50" height="50" as="geometry" />
        </mxCell>
        <mxCell id="8CUBh1B-P9i6UMyQ1_VA-26" value="" style="rounded=0;whiteSpace=wrap;html=1;strokeColor=#7EA6E0;strokeWidth=3;fillColor=none;" parent="8CUBh1B-P9i6UMyQ1_VA-9" vertex="1">
          <mxGeometry x="20" y="60" width="160" height="740" as="geometry" />
        </mxCell>
        <mxCell id="8CUBh1B-P9i6UMyQ1_VA-27" value="Aurora" style="sketch=0;points=[[0,0,0],[0.25,0,0],[0.5,0,0],[0.75,0,0],[1,0,0],[0,1,0],[0.25,1,0],[0.5,1,0],[0.75,1,0],[1,1,0],[0,0.25,0],[0,0.5,0],[0,0.75,0],[1,0.25,0],[1,0.5,0],[1,0.75,0]];outlineConnect=0;fontColor=#232F3E;gradientColor=#4D72F3;gradientDirection=north;fillColor=#3334B9;strokeColor=#ffffff;dashed=0;verticalLabelPosition=middle;verticalAlign=middle;align=left;html=1;fontSize=12;fontStyle=0;aspect=fixed;shape=mxgraph.aws4.resourceIcon;resIcon=mxgraph.aws4.aurora;strokeWidth=1;labelPosition=right;" parent="8CUBh1B-P9i6UMyQ1_VA-9" vertex="1">
          <mxGeometry x="30" y="740" width="50" height="50" as="geometry" />
        </mxCell>
        <mxCell id="8CUBh1B-P9i6UMyQ1_VA-28" value="" style="rounded=0;whiteSpace=wrap;html=1;strokeColor=#7EA6E0;strokeWidth=3;fillColor=none;" parent="8CUBh1B-P9i6UMyQ1_VA-9" vertex="1">
          <mxGeometry x="210" y="60" width="160" height="740" as="geometry" />
        </mxCell>
        <mxCell id="-T1d_Pq61l5wgLVzQ80w-1" value="&lt;div&gt;ElastiCache&lt;/div&gt;&lt;div&gt;cluster&lt;br&gt;&lt;/div&gt;" style="sketch=0;points=[[0,0,0],[0.25,0,0],[0.5,0,0],[0.75,0,0],[1,0,0],[0,1,0],[0.25,1,0],[0.5,1,0],[0.75,1,0],[1,1,0],[0,0.25,0],[0,0.5,0],[0,0.75,0],[1,0.25,0],[1,0.5,0],[1,0.75,0]];outlineConnect=0;fontColor=#232F3E;gradientColor=#4D72F3;gradientDirection=north;fillColor=#3334B9;strokeColor=#ffffff;dashed=0;verticalLabelPosition=middle;verticalAlign=middle;align=left;html=1;fontSize=12;fontStyle=0;aspect=fixed;shape=mxgraph.aws4.resourceIcon;resIcon=mxgraph.aws4.elasticache;strokeWidth=3;labelPosition=right;" parent="8CUBh1B-P9i6UMyQ1_VA-9" vertex="1">
          <mxGeometry x="220" y="740" width="50" height="50" as="geometry" />
        </mxCell>
        <mxCell id="-T1d_Pq61l5wgLVzQ80w-2" value="Redis nodes" style="sketch=0;outlineConnect=0;fontColor=#232F3E;gradientColor=none;fillColor=#2E27AD;strokeColor=none;dashed=0;verticalLabelPosition=bottom;verticalAlign=top;align=center;html=1;fontSize=12;fontStyle=0;aspect=fixed;pointerEvents=1;shape=mxgraph.aws4.elasticache_for_redis;strokeWidth=3;" parent="8CUBh1B-P9i6UMyQ1_VA-9" vertex="1">
          <mxGeometry x="261.74" y="600" width="56.52" height="50" as="geometry" />
        </mxCell>
        <mxCell id="-T1d_Pq61l5wgLVzQ80w-3" value="Redis nodes" style="sketch=0;outlineConnect=0;fontColor=#232F3E;gradientColor=none;fillColor=#2E27AD;strokeColor=none;dashed=0;verticalLabelPosition=bottom;verticalAlign=top;align=center;html=1;fontSize=12;fontStyle=0;aspect=fixed;pointerEvents=1;shape=mxgraph.aws4.elasticache_for_redis;strokeWidth=3;" parent="8CUBh1B-P9i6UMyQ1_VA-9" vertex="1">
          <mxGeometry x="261.74" y="360" width="56.52" height="50" as="geometry" />
        </mxCell>
        <mxCell id="-T1d_Pq61l5wgLVzQ80w-4" value="Redis nodes" style="sketch=0;outlineConnect=0;fontColor=#232F3E;gradientColor=none;fillColor=#2E27AD;strokeColor=none;dashed=0;verticalLabelPosition=bottom;verticalAlign=top;align=center;html=1;fontSize=12;fontStyle=0;aspect=fixed;pointerEvents=1;shape=mxgraph.aws4.elasticache_for_redis;strokeWidth=3;" parent="8CUBh1B-P9i6UMyQ1_VA-9" vertex="1">
          <mxGeometry x="261.74" y="120" width="56.52" height="50" as="geometry" />
        </mxCell>
        <mxCell id="rYe-QfnL6kQYMX3p67Vk-1" value="MSK" style="sketch=0;points=[[0,0,0],[0.25,0,0],[0.5,0,0],[0.75,0,0],[1,0,0],[0,1,0],[0.25,1,0],[0.5,1,0],[0.75,1,0],[1,1,0],[0,0.25,0],[0,0.5,0],[0,0.75,0],[1,0.25,0],[1,0.5,0],[1,0.75,0]];outlineConnect=0;fontColor=#232F3E;gradientColor=#945DF2;gradientDirection=north;fillColor=#5A30B5;strokeColor=#ffffff;dashed=0;verticalLabelPosition=middle;verticalAlign=middle;align=left;html=1;fontSize=12;fontStyle=0;aspect=fixed;shape=mxgraph.aws4.resourceIcon;resIcon=mxgraph.aws4.managed_streaming_for_kafka;strokeWidth=3;labelPosition=right;" parent="8CUBh1B-P9i6UMyQ1_VA-9" vertex="1">
          <mxGeometry x="408" y="740" width="50" height="50" as="geometry" />
        </mxCell>
        <mxCell id="rYe-QfnL6kQYMX3p67Vk-3" value="" style="rounded=0;whiteSpace=wrap;html=1;strokeColor=#A680B8;strokeWidth=3;fillColor=none;" parent="8CUBh1B-P9i6UMyQ1_VA-9" vertex="1">
          <mxGeometry x="398" y="60" width="160" height="740" as="geometry" />
        </mxCell>
        <mxCell id="-T1d_Pq61l5wgLVzQ80w-7" style="edgeStyle=orthogonalEdgeStyle;rounded=0;orthogonalLoop=1;jettySize=auto;html=1;entryX=0;entryY=0.5;entryDx=0;entryDy=0;entryPerimeter=0;" parent="1" source="-T1d_Pq61l5wgLVzQ80w-6" target="mEX8YMI9ewZTBotOx9i--11" edge="1">
          <mxGeometry relative="1" as="geometry" />
        </mxCell>
        <mxCell id="-T1d_Pq61l5wgLVzQ80w-8" style="edgeStyle=orthogonalEdgeStyle;rounded=0;orthogonalLoop=1;jettySize=auto;html=1;entryX=0.5;entryY=1;entryDx=0;entryDy=0;entryPerimeter=0;" parent="1" source="-T1d_Pq61l5wgLVzQ80w-6" target="mEX8YMI9ewZTBotOx9i--12" edge="1">
          <mxGeometry relative="1" as="geometry">
            <Array as="points">
              <mxPoint x="123" y="710" />
              <mxPoint x="467" y="710" />
            </Array>
          </mxGeometry>
        </mxCell>
        <mxCell id="-T1d_Pq61l5wgLVzQ80w-6" value="" style="sketch=0;outlineConnect=0;fontColor=#232F3E;gradientColor=none;fillColor=#232F3D;strokeColor=none;dashed=0;verticalLabelPosition=bottom;verticalAlign=top;align=center;html=1;fontSize=12;fontStyle=0;aspect=fixed;pointerEvents=1;shape=mxgraph.aws4.client;strokeWidth=3;" parent="1" vertex="1">
          <mxGeometry x="92" y="621.28" width="50" height="48.72" as="geometry" />
        </mxCell>
        <mxCell id="-T1d_Pq61l5wgLVzQ80w-14" style="edgeStyle=orthogonalEdgeStyle;rounded=0;orthogonalLoop=1;jettySize=auto;html=1;entryX=1;entryY=0.5;entryDx=0;entryDy=0;entryPerimeter=0;" parent="1" source="-T1d_Pq61l5wgLVzQ80w-13" target="y9bNS4eyc0Dm0tp-QQuw-1" edge="1">
          <mxGeometry relative="1" as="geometry" />
        </mxCell>
        <mxCell id="-T1d_Pq61l5wgLVzQ80w-19" value="Private subnet" style="points=[[0,0],[0.25,0],[0.5,0],[0.75,0],[1,0],[1,0.25],[1,0.5],[1,0.75],[1,1],[0.75,1],[0.5,1],[0.25,1],[0,1],[0,0.75],[0,0.5],[0,0.25]];outlineConnect=0;gradientColor=none;html=1;whiteSpace=wrap;fontSize=12;fontStyle=0;container=1;pointerEvents=0;collapsible=0;recursiveResize=0;shape=mxgraph.aws4.group;grIcon=mxgraph.aws4.group_security_group;grStroke=0;strokeColor=#147EBA;fillColor=#E6F2F8;verticalAlign=top;align=left;spacingLeft=30;fontColor=#147EBA;dashed=0;strokeWidth=1;" parent="1" vertex="1">
          <mxGeometry x="534" y="150" width="120" height="120" as="geometry" />
        </mxCell>
        <mxCell id="-T1d_Pq61l5wgLVzQ80w-20" value="TGW ENI" style="sketch=0;outlineConnect=0;fontColor=#232F3E;gradientColor=none;fillColor=#4D27AA;strokeColor=none;dashed=0;verticalLabelPosition=bottom;verticalAlign=top;align=center;html=1;fontSize=12;fontStyle=0;aspect=fixed;pointerEvents=1;shape=mxgraph.aws4.elastic_network_interface;strokeWidth=1;" parent="-T1d_Pq61l5wgLVzQ80w-19" vertex="1">
          <mxGeometry x="38" y="40" width="50" height="50" as="geometry" />
        </mxCell>
        <mxCell id="-T1d_Pq61l5wgLVzQ80w-21" value="Private subnet" style="points=[[0,0],[0.25,0],[0.5,0],[0.75,0],[1,0],[1,0.25],[1,0.5],[1,0.75],[1,1],[0.75,1],[0.5,1],[0.25,1],[0,1],[0,0.75],[0,0.5],[0,0.25]];outlineConnect=0;gradientColor=none;html=1;whiteSpace=wrap;fontSize=12;fontStyle=0;container=1;pointerEvents=0;collapsible=0;recursiveResize=0;shape=mxgraph.aws4.group;grIcon=mxgraph.aws4.group_security_group;grStroke=0;strokeColor=#147EBA;fillColor=#E6F2F8;verticalAlign=top;align=left;spacingLeft=30;fontColor=#147EBA;dashed=0;strokeWidth=1;" parent="1" vertex="1">
          <mxGeometry x="362" y="150" width="120" height="120" as="geometry" />
        </mxCell>
        <mxCell id="-T1d_Pq61l5wgLVzQ80w-22" value="Firewall" style="sketch=0;points=[[0,0,0],[0.25,0,0],[0.5,0,0],[0.75,0,0],[1,0,0],[0,1,0],[0.25,1,0],[0.5,1,0],[0.75,1,0],[1,1,0],[0,0.25,0],[0,0.5,0],[0,0.75,0],[1,0.25,0],[1,0.5,0],[1,0.75,0]];outlineConnect=0;fontColor=#232F3E;gradientColor=#F54749;gradientDirection=north;fillColor=#C7131F;strokeColor=#ffffff;dashed=0;verticalLabelPosition=bottom;verticalAlign=top;align=center;html=1;fontSize=12;fontStyle=0;aspect=fixed;shape=mxgraph.aws4.resourceIcon;resIcon=mxgraph.aws4.network_firewall;strokeWidth=1;" parent="-T1d_Pq61l5wgLVzQ80w-21" vertex="1">
          <mxGeometry x="35" y="40" width="50" height="50" as="geometry" />
        </mxCell>
        <mxCell id="-T1d_Pq61l5wgLVzQ80w-23" style="edgeStyle=orthogonalEdgeStyle;rounded=0;orthogonalLoop=1;jettySize=auto;html=1;" parent="1" source="-T1d_Pq61l5wgLVzQ80w-22" target="3HE5Ov2UQpyYhf-e1CQ4-12" edge="1">
          <mxGeometry relative="1" as="geometry" />
        </mxCell>
        <mxCell id="-T1d_Pq61l5wgLVzQ80w-26" style="edgeStyle=orthogonalEdgeStyle;rounded=0;orthogonalLoop=1;jettySize=auto;html=1;entryX=1;entryY=0.5;entryDx=0;entryDy=0;entryPerimeter=0;" parent="1" source="-T1d_Pq61l5wgLVzQ80w-20" target="-T1d_Pq61l5wgLVzQ80w-22" edge="1">
          <mxGeometry relative="1" as="geometry" />
        </mxCell>
        <mxCell id="-T1d_Pq61l5wgLVzQ80w-28" style="edgeStyle=orthogonalEdgeStyle;rounded=0;orthogonalLoop=1;jettySize=auto;html=1;" parent="1" source="-T1d_Pq61l5wgLVzQ80w-27" target="-T1d_Pq61l5wgLVzQ80w-13" edge="1">
          <mxGeometry relative="1" as="geometry">
            <Array as="points">
              <mxPoint x="717" y="-265" />
            </Array>
          </mxGeometry>
        </mxCell>
        <mxCell id="-T1d_Pq61l5wgLVzQ80w-29" style="edgeStyle=orthogonalEdgeStyle;rounded=0;orthogonalLoop=1;jettySize=auto;html=1;" parent="1" source="-T1d_Pq61l5wgLVzQ80w-27" target="-T1d_Pq61l5wgLVzQ80w-16" edge="1">
          <mxGeometry relative="1" as="geometry">
            <Array as="points">
              <mxPoint x="717" y="-25" />
            </Array>
          </mxGeometry>
        </mxCell>
        <mxCell id="-T1d_Pq61l5wgLVzQ80w-30" style="edgeStyle=orthogonalEdgeStyle;rounded=0;orthogonalLoop=1;jettySize=auto;html=1;" parent="1" source="-T1d_Pq61l5wgLVzQ80w-27" target="-T1d_Pq61l5wgLVzQ80w-20" edge="1">
          <mxGeometry relative="1" as="geometry">
            <Array as="points">
              <mxPoint x="717" y="215" />
            </Array>
          </mxGeometry>
        </mxCell>
        <mxCell id="-T1d_Pq61l5wgLVzQ80w-31" style="edgeStyle=orthogonalEdgeStyle;rounded=0;orthogonalLoop=1;jettySize=auto;html=1;entryX=0.5;entryY=0;entryDx=0;entryDy=0;" parent="1" source="-T1d_Pq61l5wgLVzQ80w-27" target="Nfd40_HTB5JFDx6Zlok1-3" edge="1">
          <mxGeometry relative="1" as="geometry" />
        </mxCell>
        <mxCell id="-T1d_Pq61l5wgLVzQ80w-33" style="edgeStyle=orthogonalEdgeStyle;rounded=0;orthogonalLoop=1;jettySize=auto;html=1;entryX=0.25;entryY=0;entryDx=0;entryDy=0;" parent="1" source="-T1d_Pq61l5wgLVzQ80w-27" target="8CUBh1B-P9i6UMyQ1_VA-9" edge="1">
          <mxGeometry relative="1" as="geometry" />
        </mxCell>
        <mxCell id="-T1d_Pq61l5wgLVzQ80w-27" value="Transit Gateway" style="sketch=0;points=[[0,0,0],[0.25,0,0],[0.5,0,0],[0.75,0,0],[1,0,0],[0,1,0],[0.25,1,0],[0.5,1,0],[0.75,1,0],[1,1,0],[0,0.25,0],[0,0.5,0],[0,0.75,0],[1,0.25,0],[1,0.5,0],[1,0.75,0]];outlineConnect=0;fontColor=#232F3E;gradientColor=#945DF2;gradientDirection=north;fillColor=#5A30B5;strokeColor=#ffffff;dashed=0;verticalLabelPosition=top;verticalAlign=bottom;align=center;html=1;fontSize=12;fontStyle=0;aspect=fixed;shape=mxgraph.aws4.resourceIcon;resIcon=mxgraph.aws4.transit_gateway;strokeWidth=3;labelPosition=center;" parent="1" vertex="1">
          <mxGeometry x="692" y="-540" width="50" height="50" as="geometry" />
        </mxCell>
        <mxCell id="-T1d_Pq61l5wgLVzQ80w-40" value="" style="edgeStyle=orthogonalEdgeStyle;rounded=0;orthogonalLoop=1;jettySize=auto;html=1;endArrow=none;" parent="1" source="Nfd40_HTB5JFDx6Zlok1-1" target="-T1d_Pq61l5wgLVzQ80w-38" edge="1">
          <mxGeometry relative="1" as="geometry">
            <mxPoint x="631.9999999999995" y="644.9411764705883" as="sourcePoint" />
            <mxPoint x="861.9411764705883" y="489.99999999999955" as="targetPoint" />
          </mxGeometry>
        </mxCell>
        <mxCell id="-T1d_Pq61l5wgLVzQ80w-38" value="VPC link" style="sketch=0;points=[[0,0,0],[0.25,0,0],[0.5,0,0],[0.75,0,0],[1,0,0],[0,1,0],[0.25,1,0],[0.5,1,0],[0.75,1,0],[1,1,0],[0,0.25,0],[0,0.5,0],[0,0.75,0],[1,0.25,0],[1,0.5,0],[1,0.75,0]];outlineConnect=0;fontColor=#232F3E;gradientColor=#945DF2;gradientDirection=north;fillColor=#5A30B5;strokeColor=#ffffff;dashed=0;verticalLabelPosition=bottom;verticalAlign=top;align=center;html=1;fontSize=12;fontStyle=0;aspect=fixed;shape=mxgraph.aws4.resourceIcon;resIcon=mxgraph.aws4.vpc_privatelink;strokeWidth=3;" parent="1" vertex="1">
          <mxGeometry x="842" y="625" width="40" height="40" as="geometry" />
        </mxCell>
        <mxCell id="-T1d_Pq61l5wgLVzQ80w-47" style="edgeStyle=orthogonalEdgeStyle;rounded=0;orthogonalLoop=1;jettySize=auto;html=1;exitX=0.25;exitY=1;exitDx=0;exitDy=0;exitPerimeter=0;entryX=0.5;entryY=0;entryDx=0;entryDy=0;entryPerimeter=0;" parent="1" source="-T1d_Pq61l5wgLVzQ80w-43" target="-T1d_Pq61l5wgLVzQ80w-46" edge="1">
          <mxGeometry relative="1" as="geometry" />
        </mxCell>
        <mxCell id="-T1d_Pq61l5wgLVzQ80w-48" style="edgeStyle=orthogonalEdgeStyle;rounded=0;orthogonalLoop=1;jettySize=auto;html=1;exitX=0.75;exitY=1;exitDx=0;exitDy=0;exitPerimeter=0;entryX=0.5;entryY=0;entryDx=0;entryDy=0;entryPerimeter=0;" parent="1" source="-T1d_Pq61l5wgLVzQ80w-43" target="-T1d_Pq61l5wgLVzQ80w-45" edge="1">
          <mxGeometry relative="1" as="geometry" />
        </mxCell>
        <mxCell id="-T1d_Pq61l5wgLVzQ80w-43" value="&lt;div&gt;System Manager&lt;/div&gt;&lt;div&gt;Parameter Store&lt;br&gt;&lt;/div&gt;" style="sketch=0;points=[[0,0,0],[0.25,0,0],[0.5,0,0],[0.75,0,0],[1,0,0],[0,1,0],[0.25,1,0],[0.5,1,0],[0.75,1,0],[1,1,0],[0,0.25,0],[0,0.5,0],[0,0.75,0],[1,0.25,0],[1,0.5,0],[1,0.75,0]];points=[[0,0,0],[0.25,0,0],[0.5,0,0],[0.75,0,0],[1,0,0],[0,1,0],[0.25,1,0],[0.5,1,0],[0.75,1,0],[1,1,0],[0,0.25,0],[0,0.5,0],[0,0.75,0],[1,0.25,0],[1,0.5,0],[1,0.75,0]];outlineConnect=0;fontColor=#232F3E;gradientColor=#F34482;gradientDirection=north;fillColor=#BC1356;strokeColor=#ffffff;dashed=0;verticalLabelPosition=top;verticalAlign=bottom;align=center;html=1;fontSize=12;fontStyle=0;aspect=fixed;shape=mxgraph.aws4.resourceIcon;resIcon=mxgraph.aws4.systems_manager;strokeWidth=3;labelPosition=center;" parent="1" vertex="1">
          <mxGeometry x="1080" y="560" width="50" height="50" as="geometry" />
        </mxCell>
        <mxCell id="-T1d_Pq61l5wgLVzQ80w-45" value="Secret Manager" style="sketch=0;points=[[0,0,0],[0.25,0,0],[0.5,0,0],[0.75,0,0],[1,0,0],[0,1,0],[0.25,1,0],[0.5,1,0],[0.75,1,0],[1,1,0],[0,0.25,0],[0,0.5,0],[0,0.75,0],[1,0.25,0],[1,0.5,0],[1,0.75,0]];outlineConnect=0;fontColor=#232F3E;gradientColor=#F54749;gradientDirection=north;fillColor=#C7131F;strokeColor=#ffffff;dashed=0;verticalLabelPosition=bottom;verticalAlign=top;align=center;html=1;fontSize=12;fontStyle=0;aspect=fixed;shape=mxgraph.aws4.resourceIcon;resIcon=mxgraph.aws4.secrets_manager;strokeWidth=3;" parent="1" vertex="1">
          <mxGeometry x="1150" y="665" width="50" height="50" as="geometry" />
        </mxCell>
        <mxCell id="-T1d_Pq61l5wgLVzQ80w-46" value="KMS" style="sketch=0;points=[[0,0,0],[0.25,0,0],[0.5,0,0],[0.75,0,0],[1,0,0],[0,1,0],[0.25,1,0],[0.5,1,0],[0.75,1,0],[1,1,0],[0,0.25,0],[0,0.5,0],[0,0.75,0],[1,0.25,0],[1,0.5,0],[1,0.75,0]];outlineConnect=0;fontColor=#232F3E;gradientColor=#F54749;gradientDirection=north;fillColor=#C7131F;strokeColor=#ffffff;dashed=0;verticalLabelPosition=bottom;verticalAlign=top;align=center;html=1;fontSize=12;fontStyle=0;aspect=fixed;shape=mxgraph.aws4.resourceIcon;resIcon=mxgraph.aws4.key_management_service;strokeWidth=3;" parent="1" vertex="1">
          <mxGeometry x="1010" y="665" width="50" height="50" as="geometry" />
        </mxCell>
        <mxCell id="-T1d_Pq61l5wgLVzQ80w-49" style="edgeStyle=orthogonalEdgeStyle;rounded=0;orthogonalLoop=1;jettySize=auto;html=1;exitX=0.75;exitY=1;exitDx=0;exitDy=0;entryX=0;entryY=0.5;entryDx=0;entryDy=0;entryPerimeter=0;" parent="1" source="8CUBh1B-P9i6UMyQ1_VA-25" target="-T1d_Pq61l5wgLVzQ80w-43" edge="1">
          <mxGeometry relative="1" as="geometry" />
        </mxCell>
        <mxCell id="-T1d_Pq61l5wgLVzQ80w-50" value="VPC endpoint" style="sketch=0;outlineConnect=0;fontColor=#232F3E;gradientColor=none;fillColor=#4D27AA;strokeColor=none;dashed=0;verticalLabelPosition=middle;verticalAlign=middle;align=right;html=1;fontSize=12;fontStyle=0;aspect=fixed;pointerEvents=1;shape=mxgraph.aws4.endpoints;strokeWidth=3;labelPosition=left;" parent="1" vertex="1">
          <mxGeometry x="1000" y="550" width="30" height="30" as="geometry" />
        </mxCell>
        <mxCell id="rYe-QfnL6kQYMX3p67Vk-2" value="DynamoDB" style="sketch=0;points=[[0,0,0],[0.25,0,0],[0.5,0,0],[0.75,0,0],[1,0,0],[0,1,0],[0.25,1,0],[0.5,1,0],[0.75,1,0],[1,1,0],[0,0.25,0],[0,0.5,0],[0,0.75,0],[1,0.25,0],[1,0.5,0],[1,0.75,0]];outlineConnect=0;fontColor=#232F3E;gradientColor=#4D72F3;gradientDirection=north;fillColor=#3334B9;strokeColor=#ffffff;dashed=0;verticalLabelPosition=bottom;verticalAlign=top;align=center;html=1;fontSize=12;fontStyle=0;aspect=fixed;shape=mxgraph.aws4.resourceIcon;resIcon=mxgraph.aws4.dynamodb;strokeWidth=3;" parent="1" vertex="1">
          <mxGeometry x="1360" y="460" width="50" height="50" as="geometry" />
        </mxCell>
        <mxCell id="rYe-QfnL6kQYMX3p67Vk-10" value="VPC endpoint" style="sketch=0;outlineConnect=0;fontColor=#232F3E;gradientColor=none;fillColor=#4D27AA;strokeColor=none;dashed=0;verticalLabelPosition=middle;verticalAlign=middle;align=right;html=1;fontSize=12;fontStyle=0;aspect=fixed;pointerEvents=1;shape=mxgraph.aws4.endpoints;strokeWidth=3;labelPosition=left;" parent="1" vertex="1">
          <mxGeometry x="1180" y="450" width="30" height="30" as="geometry" />
        </mxCell>
        <mxCell id="rYe-QfnL6kQYMX3p67Vk-12" value="Cloud" style="points=[[0,0],[0.25,0],[0.5,0],[0.75,0],[1,0],[1,0.25],[1,0.5],[1,0.75],[1,1],[0.75,1],[0.5,1],[0.25,1],[0,1],[0,0.75],[0,0.5],[0,0.25]];outlineConnect=0;gradientColor=none;html=1;whiteSpace=wrap;fontSize=12;fontStyle=0;container=1;pointerEvents=0;collapsible=0;recursiveResize=0;shape=mxgraph.aws4.group;grIcon=mxgraph.aws4.group_aws_cloud_alt;strokeColor=#232F3E;fillColor=none;verticalAlign=top;align=left;spacingLeft=30;fontColor=#232F3E;dashed=0;strokeWidth=3;" parent="1" vertex="1">
          <mxGeometry x="10" y="-610" width="1660" height="1370" as="geometry" />
        </mxCell>
        <mxCell id="-T1d_Pq61l5wgLVzQ80w-41" value="CloudWatch" style="sketch=0;points=[[0,0,0],[0.25,0,0],[0.5,0,0],[0.75,0,0],[1,0,0],[0,1,0],[0.25,1,0],[0.5,1,0],[0.75,1,0],[1,1,0],[0,0.25,0],[0,0.5,0],[0,0.75,0],[1,0.25,0],[1,0.5,0],[1,0.75,0]];points=[[0,0,0],[0.25,0,0],[0.5,0,0],[0.75,0,0],[1,0,0],[0,1,0],[0.25,1,0],[0.5,1,0],[0.75,1,0],[1,1,0],[0,0.25,0],[0,0.5,0],[0,0.75,0],[1,0.25,0],[1,0.5,0],[1,0.75,0]];outlineConnect=0;fontColor=#232F3E;gradientColor=#F34482;gradientDirection=north;fillColor=#BC1356;strokeColor=#ffffff;dashed=0;verticalLabelPosition=bottom;verticalAlign=top;align=center;html=1;fontSize=12;fontStyle=0;aspect=fixed;shape=mxgraph.aws4.resourceIcon;resIcon=mxgraph.aws4.cloudwatch_2;strokeWidth=3;" parent="rYe-QfnL6kQYMX3p67Vk-12" vertex="1">
          <mxGeometry x="1500" y="30" width="50" height="50" as="geometry" />
        </mxCell>
        <mxCell id="-T1d_Pq61l5wgLVzQ80w-42" value="&lt;div&gt;X-Ray&lt;/div&gt;" style="sketch=0;points=[[0,0,0],[0.25,0,0],[0.5,0,0],[0.75,0,0],[1,0,0],[0,1,0],[0.25,1,0],[0.5,1,0],[0.75,1,0],[1,1,0],[0,0.25,0],[0,0.5,0],[0,0.75,0],[1,0.25,0],[1,0.5,0],[1,0.75,0]];outlineConnect=0;fontColor=#232F3E;gradientColor=#4D72F3;gradientDirection=north;fillColor=#3334B9;strokeColor=#ffffff;dashed=0;verticalLabelPosition=bottom;verticalAlign=top;align=center;html=1;fontSize=12;fontStyle=0;aspect=fixed;shape=mxgraph.aws4.resourceIcon;resIcon=mxgraph.aws4.xray;strokeWidth=3;" parent="rYe-QfnL6kQYMX3p67Vk-12" vertex="1">
          <mxGeometry x="1575" y="30" width="50" height="50" as="geometry" />
        </mxCell>
      </root>
    </mxGraphModel>
  </diagram>
  <diagram name="phase1" id="F25aRdVoFxDY1aH4g8lS">
    <mxGraphModel dx="1422" dy="1862" grid="1" gridSize="10" guides="1" tooltips="1" connect="1" arrows="1" fold="1" page="1" pageScale="1" pageWidth="850" pageHeight="1100" math="0" shadow="0">
      <root>
        <mxCell id="EY5nrAaeHHcLnrIcmBRg-0" />
        <mxCell id="EY5nrAaeHHcLnrIcmBRg-1" parent="EY5nrAaeHHcLnrIcmBRg-0" />
        <mxCell id="EY5nrAaeHHcLnrIcmBRg-92" value="Cloud" style="points=[[0,0],[0.25,0],[0.5,0],[0.75,0],[1,0],[1,0.25],[1,0.5],[1,0.75],[1,1],[0.75,1],[0.5,1],[0.25,1],[0,1],[0,0.75],[0,0.5],[0,0.25]];outlineConnect=0;gradientColor=none;html=1;whiteSpace=wrap;fontSize=12;fontStyle=0;container=1;pointerEvents=0;collapsible=0;recursiveResize=0;shape=mxgraph.aws4.group;grIcon=mxgraph.aws4.group_aws_cloud_alt;strokeColor=#232F3E;fillColor=none;verticalAlign=top;align=left;spacingLeft=30;fontColor=#232F3E;dashed=0;strokeWidth=3;" parent="EY5nrAaeHHcLnrIcmBRg-1" vertex="1">
          <mxGeometry x="10" y="-610" width="1660" height="1370" as="geometry" />
        </mxCell>
        <mxCell id="EY5nrAaeHHcLnrIcmBRg-93" value="CloudWatch" style="sketch=0;points=[[0,0,0],[0.25,0,0],[0.5,0,0],[0.75,0,0],[1,0,0],[0,1,0],[0.25,1,0],[0.5,1,0],[0.75,1,0],[1,1,0],[0,0.25,0],[0,0.5,0],[0,0.75,0],[1,0.25,0],[1,0.5,0],[1,0.75,0]];points=[[0,0,0],[0.25,0,0],[0.5,0,0],[0.75,0,0],[1,0,0],[0,1,0],[0.25,1,0],[0.5,1,0],[0.75,1,0],[1,1,0],[0,0.25,0],[0,0.5,0],[0,0.75,0],[1,0.25,0],[1,0.5,0],[1,0.75,0]];outlineConnect=0;fontColor=#232F3E;gradientColor=#F34482;gradientDirection=north;fillColor=#BC1356;strokeColor=#ffffff;dashed=0;verticalLabelPosition=bottom;verticalAlign=top;align=center;html=1;fontSize=12;fontStyle=0;aspect=fixed;shape=mxgraph.aws4.resourceIcon;resIcon=mxgraph.aws4.cloudwatch_2;strokeWidth=3;" parent="EY5nrAaeHHcLnrIcmBRg-92" vertex="1">
          <mxGeometry x="1500" y="30" width="50" height="50" as="geometry" />
        </mxCell>
        <mxCell id="EY5nrAaeHHcLnrIcmBRg-94" value="&lt;div&gt;X-Ray&lt;/div&gt;" style="sketch=0;points=[[0,0,0],[0.25,0,0],[0.5,0,0],[0.75,0,0],[1,0,0],[0,1,0],[0.25,1,0],[0.5,1,0],[0.75,1,0],[1,1,0],[0,0.25,0],[0,0.5,0],[0,0.75,0],[1,0.25,0],[1,0.5,0],[1,0.75,0]];outlineConnect=0;fontColor=#232F3E;gradientColor=#4D72F3;gradientDirection=north;fillColor=#3334B9;strokeColor=#ffffff;dashed=0;verticalLabelPosition=bottom;verticalAlign=top;align=center;html=1;fontSize=12;fontStyle=0;aspect=fixed;shape=mxgraph.aws4.resourceIcon;resIcon=mxgraph.aws4.xray;strokeWidth=3;" parent="EY5nrAaeHHcLnrIcmBRg-92" vertex="1">
          <mxGeometry x="1575" y="30" width="50" height="50" as="geometry" />
        </mxCell>
        <mxCell id="EY5nrAaeHHcLnrIcmBRg-82" value="VPC link" style="sketch=0;points=[[0,0,0],[0.25,0,0],[0.5,0,0],[0.75,0,0],[1,0,0],[0,1,0],[0.25,1,0],[0.5,1,0],[0.75,1,0],[1,1,0],[0,0.25,0],[0,0.5,0],[0,0.75,0],[1,0.25,0],[1,0.5,0],[1,0.75,0]];outlineConnect=0;fontColor=#232F3E;gradientColor=#945DF2;gradientDirection=north;fillColor=#5A30B5;strokeColor=#ffffff;dashed=0;verticalLabelPosition=middle;verticalAlign=middle;align=right;html=1;fontSize=12;fontStyle=0;aspect=fixed;shape=mxgraph.aws4.resourceIcon;resIcon=mxgraph.aws4.vpc_privatelink;strokeWidth=3;labelPosition=left;" parent="EY5nrAaeHHcLnrIcmBRg-92" vertex="1">
          <mxGeometry x="577" y="1130" width="40" height="40" as="geometry" />
        </mxCell>
        <mxCell id="tZWVkKgqLiqJ81GVMoHh-9" value="VPC endpoint" style="sketch=0;outlineConnect=0;fontColor=#232F3E;gradientColor=none;fillColor=#4D27AA;strokeColor=none;dashed=0;verticalLabelPosition=middle;verticalAlign=middle;align=right;html=1;fontSize=12;fontStyle=0;aspect=fixed;pointerEvents=1;shape=mxgraph.aws4.endpoints;strokeWidth=3;labelPosition=left;" vertex="1" parent="EY5nrAaeHHcLnrIcmBRg-92">
          <mxGeometry x="1100" y="20" width="30" height="30" as="geometry" />
        </mxCell>
        <mxCell id="EY5nrAaeHHcLnrIcmBRg-3" value="VPC" style="points=[[0,0],[0.25,0],[0.5,0],[0.75,0],[1,0],[1,0.25],[1,0.5],[1,0.75],[1,1],[0.75,1],[0.5,1],[0.25,1],[0,1],[0,0.75],[0,0.5],[0,0.25]];outlineConnect=0;gradientColor=none;html=1;whiteSpace=wrap;fontSize=12;fontStyle=0;container=1;pointerEvents=0;collapsible=0;recursiveResize=0;shape=mxgraph.aws4.group;grIcon=mxgraph.aws4.group_vpc;strokeColor=#248814;fillColor=none;verticalAlign=top;align=left;spacingLeft=30;fontColor=#AAB7B8;dashed=0;strokeWidth=1;" parent="EY5nrAaeHHcLnrIcmBRg-1" vertex="1">
          <mxGeometry x="80" y="-480" width="1520" height="910" as="geometry" />
        </mxCell>
        <mxCell id="EY5nrAaeHHcLnrIcmBRg-2" value="Availability zone" style="sketch=0;outlineConnect=0;gradientColor=none;html=1;whiteSpace=wrap;fontSize=12;fontStyle=0;shape=mxgraph.aws4.group;grIcon=mxgraph.aws4.group_availability_zone;strokeColor=#545B64;fillColor=none;verticalAlign=top;align=left;spacingLeft=30;fontColor=#545B64;dashed=1;strokeWidth=1;" parent="EY5nrAaeHHcLnrIcmBRg-3" vertex="1">
          <mxGeometry x="-40" y="40" width="1598" height="200" as="geometry" />
        </mxCell>
        <mxCell id="L6V-S_u8wCmisRzWze7B-6" value="" style="rounded=0;whiteSpace=wrap;html=1;strokeColor=#FFB570;strokeWidth=3;fillColor=none;" parent="EY5nrAaeHHcLnrIcmBRg-3" vertex="1">
          <mxGeometry x="500" y="70" width="160" height="740" as="geometry" />
        </mxCell>
        <mxCell id="EY5nrAaeHHcLnrIcmBRg-22" value="Availability zone" style="sketch=0;outlineConnect=0;gradientColor=none;html=1;whiteSpace=wrap;fontSize=12;fontStyle=0;shape=mxgraph.aws4.group;grIcon=mxgraph.aws4.group_availability_zone;strokeColor=#545B64;fillColor=none;verticalAlign=top;align=left;spacingLeft=30;fontColor=#545B64;dashed=1;strokeWidth=1;" parent="EY5nrAaeHHcLnrIcmBRg-3" vertex="1">
          <mxGeometry x="-40" y="520" width="1598" height="200" as="geometry" />
        </mxCell>
        <mxCell id="hDipHO7ff8xxEkr_zlVb-17" value="" style="rounded=0;whiteSpace=wrap;html=1;strokeColor=#A680B8;strokeWidth=3;fillColor=none;" parent="EY5nrAaeHHcLnrIcmBRg-3" vertex="1">
          <mxGeometry x="1208" y="70" width="160" height="740" as="geometry" />
        </mxCell>
        <mxCell id="hDipHO7ff8xxEkr_zlVb-11" value="" style="rounded=0;whiteSpace=wrap;html=1;strokeColor=#7EA6E0;strokeWidth=3;fillColor=none;" parent="EY5nrAaeHHcLnrIcmBRg-3" vertex="1">
          <mxGeometry x="1020" y="70" width="160" height="740" as="geometry" />
        </mxCell>
        <mxCell id="hDipHO7ff8xxEkr_zlVb-9" value="" style="rounded=0;whiteSpace=wrap;html=1;strokeColor=#7EA6E0;strokeWidth=3;fillColor=none;" parent="EY5nrAaeHHcLnrIcmBRg-3" vertex="1">
          <mxGeometry x="830" y="70" width="160" height="740" as="geometry" />
        </mxCell>
        <mxCell id="EY5nrAaeHHcLnrIcmBRg-4" value="Availability zone" style="sketch=0;outlineConnect=0;gradientColor=none;html=1;whiteSpace=wrap;fontSize=12;fontStyle=0;shape=mxgraph.aws4.group;grIcon=mxgraph.aws4.group_availability_zone;strokeColor=#545B64;fillColor=none;verticalAlign=top;align=left;spacingLeft=30;fontColor=#545B64;dashed=1;strokeWidth=1;" parent="EY5nrAaeHHcLnrIcmBRg-3" vertex="1">
          <mxGeometry x="-40" y="280" width="1600" height="200" as="geometry" />
        </mxCell>
        <mxCell id="EY5nrAaeHHcLnrIcmBRg-7" value="&lt;div&gt;Internet&lt;/div&gt;&lt;div&gt;Gateway&lt;br&gt;&lt;/div&gt;" style="sketch=0;outlineConnect=0;fontColor=#232F3E;gradientColor=none;fillColor=#4D27AA;strokeColor=none;dashed=0;verticalLabelPosition=bottom;verticalAlign=top;align=center;html=1;fontSize=12;fontStyle=0;aspect=fixed;pointerEvents=1;shape=mxgraph.aws4.internet_gateway;" parent="EY5nrAaeHHcLnrIcmBRg-3" vertex="1">
          <mxGeometry x="15" y="750" width="50" height="50" as="geometry" />
        </mxCell>
        <mxCell id="EY5nrAaeHHcLnrIcmBRg-5" value="Public subnet" style="points=[[0,0],[0.25,0],[0.5,0],[0.75,0],[1,0],[1,0.25],[1,0.5],[1,0.75],[1,1],[0.75,1],[0.5,1],[0.25,1],[0,1],[0,0.75],[0,0.5],[0,0.25]];outlineConnect=0;gradientColor=none;html=1;whiteSpace=wrap;fontSize=12;fontStyle=0;container=1;pointerEvents=0;collapsible=0;recursiveResize=0;shape=mxgraph.aws4.group;grIcon=mxgraph.aws4.group_security_group;grStroke=0;strokeColor=#248814;fillColor=#E9F3E6;verticalAlign=top;align=left;spacingLeft=30;fontColor=#248814;dashed=0;strokeWidth=1;" parent="EY5nrAaeHHcLnrIcmBRg-3" vertex="1">
          <mxGeometry x="80" y="330" width="130" height="120" as="geometry" />
        </mxCell>
        <mxCell id="EY5nrAaeHHcLnrIcmBRg-6" value="NAT" style="sketch=0;outlineConnect=0;fontColor=#232F3E;gradientColor=none;fillColor=#4D27AA;strokeColor=none;dashed=0;verticalLabelPosition=bottom;verticalAlign=top;align=center;html=1;fontSize=12;fontStyle=0;aspect=fixed;pointerEvents=1;shape=mxgraph.aws4.nat_gateway;strokeWidth=1;" parent="EY5nrAaeHHcLnrIcmBRg-5" vertex="1">
          <mxGeometry x="40" y="40" width="50" height="50" as="geometry" />
        </mxCell>
        <mxCell id="EY5nrAaeHHcLnrIcmBRg-8" style="edgeStyle=orthogonalEdgeStyle;rounded=0;orthogonalLoop=1;jettySize=auto;html=1;" parent="EY5nrAaeHHcLnrIcmBRg-3" source="EY5nrAaeHHcLnrIcmBRg-6" target="EY5nrAaeHHcLnrIcmBRg-7" edge="1">
          <mxGeometry relative="1" as="geometry" />
        </mxCell>
        <mxCell id="L6V-S_u8wCmisRzWze7B-13" style="edgeStyle=orthogonalEdgeStyle;rounded=0;orthogonalLoop=1;jettySize=auto;html=1;" parent="EY5nrAaeHHcLnrIcmBRg-3" source="L6V-S_u8wCmisRzWze7B-0" target="EY5nrAaeHHcLnrIcmBRg-18" edge="1">
          <mxGeometry relative="1" as="geometry">
            <mxPoint x="385" y="155" as="targetPoint" />
          </mxGeometry>
        </mxCell>
        <mxCell id="hDipHO7ff8xxEkr_zlVb-21" style="edgeStyle=orthogonalEdgeStyle;rounded=0;orthogonalLoop=1;jettySize=auto;html=1;" parent="EY5nrAaeHHcLnrIcmBRg-3" source="L6V-S_u8wCmisRzWze7B-0" target="hDipHO7ff8xxEkr_zlVb-0" edge="1">
          <mxGeometry relative="1" as="geometry" />
        </mxCell>
        <mxCell id="L6V-S_u8wCmisRzWze7B-0" value="Private subnet" style="points=[[0,0],[0.25,0],[0.5,0],[0.75,0],[1,0],[1,0.25],[1,0.5],[1,0.75],[1,1],[0.75,1],[0.5,1],[0.25,1],[0,1],[0,0.75],[0,0.5],[0,0.25]];outlineConnect=0;gradientColor=none;html=1;whiteSpace=wrap;fontSize=12;fontStyle=0;container=1;pointerEvents=0;collapsible=0;recursiveResize=0;shape=mxgraph.aws4.group;grIcon=mxgraph.aws4.group_security_group;grStroke=0;strokeColor=#147EBA;fillColor=#E6F2F8;verticalAlign=top;align=left;spacingLeft=30;fontColor=#147EBA;dashed=0;strokeWidth=1;" parent="EY5nrAaeHHcLnrIcmBRg-3" vertex="1">
          <mxGeometry x="520" y="95" width="120" height="120" as="geometry" />
        </mxCell>
        <mxCell id="L6V-S_u8wCmisRzWze7B-1" value="kube-system" style="sketch=0;points=[[0,0,0],[0.25,0,0],[0.5,0,0],[0.75,0,0],[1,0,0],[0,1,0],[0.25,1,0],[0.5,1,0],[0.75,1,0],[1,1,0],[0,0.25,0],[0,0.5,0],[0,0.75,0],[1,0.25,0],[1,0.5,0],[1,0.75,0]];outlineConnect=0;fontColor=#232F3E;gradientColor=#F78E04;gradientDirection=north;fillColor=#D05C17;strokeColor=#ffffff;dashed=0;verticalLabelPosition=bottom;verticalAlign=top;align=center;html=1;fontSize=12;fontStyle=0;aspect=fixed;shape=mxgraph.aws4.resourceIcon;resIcon=mxgraph.aws4.fargate;strokeWidth=1;" parent="L6V-S_u8wCmisRzWze7B-0" vertex="1">
          <mxGeometry x="35" y="40" width="50" height="50" as="geometry" />
        </mxCell>
        <mxCell id="hDipHO7ff8xxEkr_zlVb-20" style="edgeStyle=orthogonalEdgeStyle;rounded=0;orthogonalLoop=1;jettySize=auto;html=1;" parent="EY5nrAaeHHcLnrIcmBRg-3" source="L6V-S_u8wCmisRzWze7B-2" target="hDipHO7ff8xxEkr_zlVb-6" edge="1">
          <mxGeometry relative="1" as="geometry" />
        </mxCell>
        <mxCell id="L6V-S_u8wCmisRzWze7B-2" value="Private subnet" style="points=[[0,0],[0.25,0],[0.5,0],[0.75,0],[1,0],[1,0.25],[1,0.5],[1,0.75],[1,1],[0.75,1],[0.5,1],[0.25,1],[0,1],[0,0.75],[0,0.5],[0,0.25]];outlineConnect=0;gradientColor=none;html=1;whiteSpace=wrap;fontSize=12;fontStyle=0;container=1;pointerEvents=0;collapsible=0;recursiveResize=0;shape=mxgraph.aws4.group;grIcon=mxgraph.aws4.group_security_group;grStroke=0;strokeColor=#147EBA;fillColor=#E6F2F8;verticalAlign=top;align=left;spacingLeft=30;fontColor=#147EBA;dashed=0;strokeWidth=1;" parent="EY5nrAaeHHcLnrIcmBRg-3" vertex="1">
          <mxGeometry x="520" y="335" width="120" height="120" as="geometry" />
        </mxCell>
        <mxCell id="L6V-S_u8wCmisRzWze7B-3" value="kube-system" style="sketch=0;points=[[0,0,0],[0.25,0,0],[0.5,0,0],[0.75,0,0],[1,0,0],[0,1,0],[0.25,1,0],[0.5,1,0],[0.75,1,0],[1,1,0],[0,0.25,0],[0,0.5,0],[0,0.75,0],[1,0.25,0],[1,0.5,0],[1,0.75,0]];outlineConnect=0;fontColor=#232F3E;gradientColor=#F78E04;gradientDirection=north;fillColor=#D05C17;strokeColor=#ffffff;dashed=0;verticalLabelPosition=bottom;verticalAlign=top;align=center;html=1;fontSize=12;fontStyle=0;aspect=fixed;shape=mxgraph.aws4.resourceIcon;resIcon=mxgraph.aws4.fargate;strokeWidth=1;" parent="L6V-S_u8wCmisRzWze7B-2" vertex="1">
          <mxGeometry x="35" y="40" width="50" height="50" as="geometry" />
        </mxCell>
        <mxCell id="hDipHO7ff8xxEkr_zlVb-19" style="edgeStyle=orthogonalEdgeStyle;rounded=0;orthogonalLoop=1;jettySize=auto;html=1;" parent="EY5nrAaeHHcLnrIcmBRg-3" source="L6V-S_u8wCmisRzWze7B-4" target="hDipHO7ff8xxEkr_zlVb-3" edge="1">
          <mxGeometry relative="1" as="geometry" />
        </mxCell>
        <mxCell id="L6V-S_u8wCmisRzWze7B-4" value="Private subnet" style="points=[[0,0],[0.25,0],[0.5,0],[0.75,0],[1,0],[1,0.25],[1,0.5],[1,0.75],[1,1],[0.75,1],[0.5,1],[0.25,1],[0,1],[0,0.75],[0,0.5],[0,0.25]];outlineConnect=0;gradientColor=none;html=1;whiteSpace=wrap;fontSize=12;fontStyle=0;container=1;pointerEvents=0;collapsible=0;recursiveResize=0;shape=mxgraph.aws4.group;grIcon=mxgraph.aws4.group_security_group;grStroke=0;strokeColor=#147EBA;fillColor=#E6F2F8;verticalAlign=top;align=left;spacingLeft=30;fontColor=#147EBA;dashed=0;strokeWidth=1;" parent="EY5nrAaeHHcLnrIcmBRg-3" vertex="1">
          <mxGeometry x="520" y="575" width="120" height="120" as="geometry" />
        </mxCell>
        <mxCell id="L6V-S_u8wCmisRzWze7B-5" value="kube-system" style="sketch=0;points=[[0,0,0],[0.25,0,0],[0.5,0,0],[0.75,0,0],[1,0,0],[0,1,0],[0.25,1,0],[0.5,1,0],[0.75,1,0],[1,1,0],[0,0.25,0],[0,0.5,0],[0,0.75,0],[1,0.25,0],[1,0.5,0],[1,0.75,0]];outlineConnect=0;fontColor=#232F3E;gradientColor=#F78E04;gradientDirection=north;fillColor=#D05C17;strokeColor=#ffffff;dashed=0;verticalLabelPosition=bottom;verticalAlign=top;align=center;html=1;fontSize=12;fontStyle=0;aspect=fixed;shape=mxgraph.aws4.resourceIcon;resIcon=mxgraph.aws4.fargate;strokeWidth=1;" parent="L6V-S_u8wCmisRzWze7B-4" vertex="1">
          <mxGeometry x="35" y="40" width="50" height="50" as="geometry" />
        </mxCell>
        <mxCell id="L6V-S_u8wCmisRzWze7B-7" value="EKS" style="sketch=0;points=[[0,0,0],[0.25,0,0],[0.5,0,0],[0.75,0,0],[1,0,0],[0,1,0],[0.25,1,0],[0.5,1,0],[0.75,1,0],[1,1,0],[0,0.25,0],[0,0.5,0],[0,0.75,0],[1,0.25,0],[1,0.5,0],[1,0.75,0]];outlineConnect=0;fontColor=#232F3E;gradientColor=#F78E04;gradientDirection=north;fillColor=#D05C17;strokeColor=#ffffff;dashed=0;verticalLabelPosition=middle;verticalAlign=middle;align=left;html=1;fontSize=12;fontStyle=0;aspect=fixed;shape=mxgraph.aws4.resourceIcon;resIcon=mxgraph.aws4.eks;strokeWidth=1;labelPosition=right;" parent="EY5nrAaeHHcLnrIcmBRg-3" vertex="1">
          <mxGeometry x="510" y="750" width="50" height="50" as="geometry" />
        </mxCell>
        <mxCell id="EY5nrAaeHHcLnrIcmBRg-23" value="Public subnet" style="points=[[0,0],[0.25,0],[0.5,0],[0.75,0],[1,0],[1,0.25],[1,0.5],[1,0.75],[1,1],[0.75,1],[0.5,1],[0.25,1],[0,1],[0,0.75],[0,0.5],[0,0.25]];outlineConnect=0;gradientColor=none;html=1;whiteSpace=wrap;fontSize=12;fontStyle=0;container=1;pointerEvents=0;collapsible=0;recursiveResize=0;shape=mxgraph.aws4.group;grIcon=mxgraph.aws4.group_security_group;grStroke=0;strokeColor=#248814;fillColor=#E9F3E6;verticalAlign=top;align=left;spacingLeft=30;fontColor=#248814;dashed=0;strokeWidth=1;" parent="EY5nrAaeHHcLnrIcmBRg-3" vertex="1">
          <mxGeometry x="78" y="570" width="132" height="120" as="geometry" />
        </mxCell>
        <mxCell id="EY5nrAaeHHcLnrIcmBRg-24" value="NAT" style="sketch=0;outlineConnect=0;fontColor=#232F3E;gradientColor=none;fillColor=#4D27AA;strokeColor=none;dashed=0;verticalLabelPosition=bottom;verticalAlign=top;align=center;html=1;fontSize=12;fontStyle=0;aspect=fixed;pointerEvents=1;shape=mxgraph.aws4.nat_gateway;strokeWidth=1;" parent="EY5nrAaeHHcLnrIcmBRg-23" vertex="1">
          <mxGeometry x="40" y="40" width="50" height="50" as="geometry" />
        </mxCell>
        <mxCell id="EY5nrAaeHHcLnrIcmBRg-17" value="Public subnet" style="points=[[0,0],[0.25,0],[0.5,0],[0.75,0],[1,0],[1,0.25],[1,0.5],[1,0.75],[1,1],[0.75,1],[0.5,1],[0.25,1],[0,1],[0,0.75],[0,0.5],[0,0.25]];outlineConnect=0;gradientColor=none;html=1;whiteSpace=wrap;fontSize=12;fontStyle=0;container=1;pointerEvents=0;collapsible=0;recursiveResize=0;shape=mxgraph.aws4.group;grIcon=mxgraph.aws4.group_security_group;grStroke=0;strokeColor=#248814;fillColor=#E9F3E6;verticalAlign=top;align=left;spacingLeft=30;fontColor=#248814;dashed=0;strokeWidth=1;" parent="EY5nrAaeHHcLnrIcmBRg-3" vertex="1">
          <mxGeometry x="80" y="90" width="130" height="120" as="geometry" />
        </mxCell>
        <mxCell id="EY5nrAaeHHcLnrIcmBRg-18" value="NAT" style="sketch=0;outlineConnect=0;fontColor=#232F3E;gradientColor=none;fillColor=#4D27AA;strokeColor=none;dashed=0;verticalLabelPosition=bottom;verticalAlign=top;align=center;html=1;fontSize=12;fontStyle=0;aspect=fixed;pointerEvents=1;shape=mxgraph.aws4.nat_gateway;strokeWidth=1;" parent="EY5nrAaeHHcLnrIcmBRg-17" vertex="1">
          <mxGeometry x="40" y="40" width="50" height="50" as="geometry" />
        </mxCell>
        <mxCell id="EY5nrAaeHHcLnrIcmBRg-25" style="edgeStyle=orthogonalEdgeStyle;rounded=0;orthogonalLoop=1;jettySize=auto;html=1;" parent="EY5nrAaeHHcLnrIcmBRg-3" source="EY5nrAaeHHcLnrIcmBRg-18" target="EY5nrAaeHHcLnrIcmBRg-7" edge="1">
          <mxGeometry relative="1" as="geometry" />
        </mxCell>
        <mxCell id="EY5nrAaeHHcLnrIcmBRg-26" style="edgeStyle=orthogonalEdgeStyle;rounded=0;orthogonalLoop=1;jettySize=auto;html=1;" parent="EY5nrAaeHHcLnrIcmBRg-3" source="EY5nrAaeHHcLnrIcmBRg-24" target="EY5nrAaeHHcLnrIcmBRg-7" edge="1">
          <mxGeometry relative="1" as="geometry" />
        </mxCell>
        <mxCell id="tZWVkKgqLiqJ81GVMoHh-3" style="edgeStyle=orthogonalEdgeStyle;rounded=0;orthogonalLoop=1;jettySize=auto;html=1;" edge="1" parent="EY5nrAaeHHcLnrIcmBRg-3" source="L6V-S_u8wCmisRzWze7B-9" target="tZWVkKgqLiqJ81GVMoHh-1">
          <mxGeometry relative="1" as="geometry" />
        </mxCell>
        <mxCell id="L6V-S_u8wCmisRzWze7B-9" value="NLB" style="sketch=0;outlineConnect=0;fontColor=#232F3E;gradientColor=none;fillColor=#4D27AA;strokeColor=none;dashed=0;verticalLabelPosition=middle;verticalAlign=middle;align=right;html=1;fontSize=12;fontStyle=0;aspect=fixed;pointerEvents=1;shape=mxgraph.aws4.network_load_balancer;strokeWidth=3;labelPosition=left;" parent="EY5nrAaeHHcLnrIcmBRg-3" vertex="1">
          <mxGeometry x="410" y="840" width="50" height="50" as="geometry" />
        </mxCell>
        <mxCell id="hDipHO7ff8xxEkr_zlVb-0" value="Private subnet" style="points=[[0,0],[0.25,0],[0.5,0],[0.75,0],[1,0],[1,0.25],[1,0.5],[1,0.75],[1,1],[0.75,1],[0.5,1],[0.25,1],[0,1],[0,0.75],[0,0.5],[0,0.25]];outlineConnect=0;gradientColor=none;html=1;whiteSpace=wrap;fontSize=12;fontStyle=0;container=1;pointerEvents=0;collapsible=0;recursiveResize=0;shape=mxgraph.aws4.group;grIcon=mxgraph.aws4.group_security_group;grStroke=0;strokeColor=#147EBA;fillColor=#E6F2F8;verticalAlign=top;align=left;spacingLeft=30;fontColor=#147EBA;dashed=0;strokeWidth=1;" parent="EY5nrAaeHHcLnrIcmBRg-3" vertex="1">
          <mxGeometry x="850" y="95" width="500" height="120" as="geometry" />
        </mxCell>
        <mxCell id="hDipHO7ff8xxEkr_zlVb-1" value="db.serverless" style="sketch=0;points=[[0,0,0],[0.25,0,0],[0.5,0,0],[0.75,0,0],[1,0,0],[0,1,0],[0.25,1,0],[0.5,1,0],[0.75,1,0],[1,1,0],[0,0.25,0],[0,0.5,0],[0,0.75,0],[1,0.25,0],[1,0.5,0],[1,0.75,0]];outlineConnect=0;fontColor=#232F3E;gradientColor=#4D72F3;gradientDirection=north;fillColor=#3334B9;strokeColor=#ffffff;dashed=0;verticalLabelPosition=bottom;verticalAlign=top;align=center;html=1;fontSize=12;fontStyle=0;aspect=fixed;shape=mxgraph.aws4.resourceIcon;resIcon=mxgraph.aws4.aurora;strokeWidth=1;" parent="hDipHO7ff8xxEkr_zlVb-0" vertex="1">
          <mxGeometry x="35" y="40" width="50" height="50" as="geometry" />
        </mxCell>
        <mxCell id="hDipHO7ff8xxEkr_zlVb-2" value="serverless" style="sketch=0;points=[[0,0,0],[0.25,0,0],[0.5,0,0],[0.75,0,0],[1,0,0],[0,1,0],[0.25,1,0],[0.5,1,0],[0.75,1,0],[1,1,0],[0,0.25,0],[0,0.5,0],[0,0.75,0],[1,0.25,0],[1,0.5,0],[1,0.75,0]];outlineConnect=0;fontColor=#232F3E;gradientColor=#945DF2;gradientDirection=north;fillColor=#5A30B5;strokeColor=#ffffff;dashed=0;verticalLabelPosition=bottom;verticalAlign=top;align=center;html=1;fontSize=12;fontStyle=0;aspect=fixed;shape=mxgraph.aws4.resourceIcon;resIcon=mxgraph.aws4.serverless;strokeWidth=3;" parent="hDipHO7ff8xxEkr_zlVb-0" vertex="1">
          <mxGeometry x="408" y="35" width="50" height="50" as="geometry" />
        </mxCell>
        <mxCell id="hDipHO7ff8xxEkr_zlVb-3" value="Private subnet" style="points=[[0,0],[0.25,0],[0.5,0],[0.75,0],[1,0],[1,0.25],[1,0.5],[1,0.75],[1,1],[0.75,1],[0.5,1],[0.25,1],[0,1],[0,0.75],[0,0.5],[0,0.25]];outlineConnect=0;gradientColor=none;html=1;whiteSpace=wrap;fontSize=12;fontStyle=0;container=1;pointerEvents=0;collapsible=0;recursiveResize=0;shape=mxgraph.aws4.group;grIcon=mxgraph.aws4.group_security_group;grStroke=0;strokeColor=#147EBA;fillColor=#E6F2F8;verticalAlign=top;align=left;spacingLeft=30;fontColor=#147EBA;dashed=0;strokeWidth=1;" parent="EY5nrAaeHHcLnrIcmBRg-3" vertex="1">
          <mxGeometry x="850" y="575" width="500" height="120" as="geometry" />
        </mxCell>
        <mxCell id="hDipHO7ff8xxEkr_zlVb-4" value="db.serverless" style="sketch=0;points=[[0,0,0],[0.25,0,0],[0.5,0,0],[0.75,0,0],[1,0,0],[0,1,0],[0.25,1,0],[0.5,1,0],[0.75,1,0],[1,1,0],[0,0.25,0],[0,0.5,0],[0,0.75,0],[1,0.25,0],[1,0.5,0],[1,0.75,0]];outlineConnect=0;fontColor=#232F3E;gradientColor=#4D72F3;gradientDirection=north;fillColor=#3334B9;strokeColor=#ffffff;dashed=0;verticalLabelPosition=bottom;verticalAlign=top;align=center;html=1;fontSize=12;fontStyle=0;aspect=fixed;shape=mxgraph.aws4.resourceIcon;resIcon=mxgraph.aws4.aurora;strokeWidth=1;" parent="hDipHO7ff8xxEkr_zlVb-3" vertex="1">
          <mxGeometry x="35" y="40" width="50" height="50" as="geometry" />
        </mxCell>
        <mxCell id="hDipHO7ff8xxEkr_zlVb-5" value="serverless" style="sketch=0;points=[[0,0,0],[0.25,0,0],[0.5,0,0],[0.75,0,0],[1,0,0],[0,1,0],[0.25,1,0],[0.5,1,0],[0.75,1,0],[1,1,0],[0,0.25,0],[0,0.5,0],[0,0.75,0],[1,0.25,0],[1,0.5,0],[1,0.75,0]];outlineConnect=0;fontColor=#232F3E;gradientColor=#945DF2;gradientDirection=north;fillColor=#5A30B5;strokeColor=#ffffff;dashed=0;verticalLabelPosition=bottom;verticalAlign=top;align=center;html=1;fontSize=12;fontStyle=0;aspect=fixed;shape=mxgraph.aws4.resourceIcon;resIcon=mxgraph.aws4.serverless;strokeWidth=3;" parent="hDipHO7ff8xxEkr_zlVb-3" vertex="1">
          <mxGeometry x="408" y="35" width="50" height="50" as="geometry" />
        </mxCell>
        <mxCell id="hDipHO7ff8xxEkr_zlVb-6" value="Private subnet" style="points=[[0,0],[0.25,0],[0.5,0],[0.75,0],[1,0],[1,0.25],[1,0.5],[1,0.75],[1,1],[0.75,1],[0.5,1],[0.25,1],[0,1],[0,0.75],[0,0.5],[0,0.25]];outlineConnect=0;gradientColor=none;html=1;whiteSpace=wrap;fontSize=12;fontStyle=0;container=1;pointerEvents=0;collapsible=0;recursiveResize=0;shape=mxgraph.aws4.group;grIcon=mxgraph.aws4.group_security_group;grStroke=0;strokeColor=#147EBA;fillColor=#E6F2F8;verticalAlign=top;align=left;spacingLeft=30;fontColor=#147EBA;dashed=0;strokeWidth=1;" parent="EY5nrAaeHHcLnrIcmBRg-3" vertex="1">
          <mxGeometry x="850" y="335" width="500" height="120" as="geometry" />
        </mxCell>
        <mxCell id="hDipHO7ff8xxEkr_zlVb-7" value="db.serverless" style="sketch=0;points=[[0,0,0],[0.25,0,0],[0.5,0,0],[0.75,0,0],[1,0,0],[0,1,0],[0.25,1,0],[0.5,1,0],[0.75,1,0],[1,1,0],[0,0.25,0],[0,0.5,0],[0,0.75,0],[1,0.25,0],[1,0.5,0],[1,0.75,0]];outlineConnect=0;fontColor=#232F3E;gradientColor=#4D72F3;gradientDirection=north;fillColor=#3334B9;strokeColor=#ffffff;dashed=0;verticalLabelPosition=bottom;verticalAlign=top;align=center;html=1;fontSize=12;fontStyle=0;aspect=fixed;shape=mxgraph.aws4.resourceIcon;resIcon=mxgraph.aws4.aurora;strokeWidth=1;" parent="hDipHO7ff8xxEkr_zlVb-6" vertex="1">
          <mxGeometry x="35" y="35" width="50" height="50" as="geometry" />
        </mxCell>
        <mxCell id="hDipHO7ff8xxEkr_zlVb-8" value="serverless" style="sketch=0;points=[[0,0,0],[0.25,0,0],[0.5,0,0],[0.75,0,0],[1,0,0],[0,1,0],[0.25,1,0],[0.5,1,0],[0.75,1,0],[1,1,0],[0,0.25,0],[0,0.5,0],[0,0.75,0],[1,0.25,0],[1,0.5,0],[1,0.75,0]];outlineConnect=0;fontColor=#232F3E;gradientColor=#945DF2;gradientDirection=north;fillColor=#5A30B5;strokeColor=#ffffff;dashed=0;verticalLabelPosition=bottom;verticalAlign=top;align=center;html=1;fontSize=12;fontStyle=0;aspect=fixed;shape=mxgraph.aws4.resourceIcon;resIcon=mxgraph.aws4.serverless;strokeWidth=3;" parent="hDipHO7ff8xxEkr_zlVb-6" vertex="1">
          <mxGeometry x="408" y="35" width="50" height="50" as="geometry" />
        </mxCell>
        <mxCell id="hDipHO7ff8xxEkr_zlVb-10" value="Aurora" style="sketch=0;points=[[0,0,0],[0.25,0,0],[0.5,0,0],[0.75,0,0],[1,0,0],[0,1,0],[0.25,1,0],[0.5,1,0],[0.75,1,0],[1,1,0],[0,0.25,0],[0,0.5,0],[0,0.75,0],[1,0.25,0],[1,0.5,0],[1,0.75,0]];outlineConnect=0;fontColor=#232F3E;gradientColor=#4D72F3;gradientDirection=north;fillColor=#3334B9;strokeColor=#ffffff;dashed=0;verticalLabelPosition=middle;verticalAlign=middle;align=left;html=1;fontSize=12;fontStyle=0;aspect=fixed;shape=mxgraph.aws4.resourceIcon;resIcon=mxgraph.aws4.aurora;strokeWidth=1;labelPosition=right;" parent="EY5nrAaeHHcLnrIcmBRg-3" vertex="1">
          <mxGeometry x="840" y="750" width="50" height="50" as="geometry" />
        </mxCell>
        <mxCell id="hDipHO7ff8xxEkr_zlVb-12" value="&lt;div&gt;ElastiCache&lt;/div&gt;&lt;div&gt;cluster&lt;br&gt;&lt;/div&gt;" style="sketch=0;points=[[0,0,0],[0.25,0,0],[0.5,0,0],[0.75,0,0],[1,0,0],[0,1,0],[0.25,1,0],[0.5,1,0],[0.75,1,0],[1,1,0],[0,0.25,0],[0,0.5,0],[0,0.75,0],[1,0.25,0],[1,0.5,0],[1,0.75,0]];outlineConnect=0;fontColor=#232F3E;gradientColor=#4D72F3;gradientDirection=north;fillColor=#3334B9;strokeColor=#ffffff;dashed=0;verticalLabelPosition=middle;verticalAlign=middle;align=left;html=1;fontSize=12;fontStyle=0;aspect=fixed;shape=mxgraph.aws4.resourceIcon;resIcon=mxgraph.aws4.elasticache;strokeWidth=3;labelPosition=right;" parent="EY5nrAaeHHcLnrIcmBRg-3" vertex="1">
          <mxGeometry x="1030" y="750" width="50" height="50" as="geometry" />
        </mxCell>
        <mxCell id="hDipHO7ff8xxEkr_zlVb-13" value="Redis nodes" style="sketch=0;outlineConnect=0;fontColor=#232F3E;gradientColor=none;fillColor=#2E27AD;strokeColor=none;dashed=0;verticalLabelPosition=bottom;verticalAlign=top;align=center;html=1;fontSize=12;fontStyle=0;aspect=fixed;pointerEvents=1;shape=mxgraph.aws4.elasticache_for_redis;strokeWidth=3;" parent="EY5nrAaeHHcLnrIcmBRg-3" vertex="1">
          <mxGeometry x="1071.74" y="610" width="56.52" height="50" as="geometry" />
        </mxCell>
        <mxCell id="hDipHO7ff8xxEkr_zlVb-14" value="Redis nodes" style="sketch=0;outlineConnect=0;fontColor=#232F3E;gradientColor=none;fillColor=#2E27AD;strokeColor=none;dashed=0;verticalLabelPosition=bottom;verticalAlign=top;align=center;html=1;fontSize=12;fontStyle=0;aspect=fixed;pointerEvents=1;shape=mxgraph.aws4.elasticache_for_redis;strokeWidth=3;" parent="EY5nrAaeHHcLnrIcmBRg-3" vertex="1">
          <mxGeometry x="1071.74" y="370" width="56.52" height="50" as="geometry" />
        </mxCell>
        <mxCell id="hDipHO7ff8xxEkr_zlVb-15" value="Redis nodes" style="sketch=0;outlineConnect=0;fontColor=#232F3E;gradientColor=none;fillColor=#2E27AD;strokeColor=none;dashed=0;verticalLabelPosition=bottom;verticalAlign=top;align=center;html=1;fontSize=12;fontStyle=0;aspect=fixed;pointerEvents=1;shape=mxgraph.aws4.elasticache_for_redis;strokeWidth=3;" parent="EY5nrAaeHHcLnrIcmBRg-3" vertex="1">
          <mxGeometry x="1071.74" y="130" width="56.52" height="50" as="geometry" />
        </mxCell>
        <mxCell id="hDipHO7ff8xxEkr_zlVb-16" value="MSK" style="sketch=0;points=[[0,0,0],[0.25,0,0],[0.5,0,0],[0.75,0,0],[1,0,0],[0,1,0],[0.25,1,0],[0.5,1,0],[0.75,1,0],[1,1,0],[0,0.25,0],[0,0.5,0],[0,0.75,0],[1,0.25,0],[1,0.5,0],[1,0.75,0]];outlineConnect=0;fontColor=#232F3E;gradientColor=#945DF2;gradientDirection=north;fillColor=#5A30B5;strokeColor=#ffffff;dashed=0;verticalLabelPosition=middle;verticalAlign=middle;align=left;html=1;fontSize=12;fontStyle=0;aspect=fixed;shape=mxgraph.aws4.resourceIcon;resIcon=mxgraph.aws4.managed_streaming_for_kafka;strokeWidth=3;labelPosition=right;" parent="EY5nrAaeHHcLnrIcmBRg-3" vertex="1">
          <mxGeometry x="1218" y="750" width="50" height="50" as="geometry" />
        </mxCell>
        <mxCell id="L6V-S_u8wCmisRzWze7B-15" style="edgeStyle=orthogonalEdgeStyle;rounded=0;orthogonalLoop=1;jettySize=auto;html=1;" parent="EY5nrAaeHHcLnrIcmBRg-3" source="L6V-S_u8wCmisRzWze7B-4" target="EY5nrAaeHHcLnrIcmBRg-24" edge="1">
          <mxGeometry relative="1" as="geometry">
            <mxPoint x="385" y="635" as="targetPoint" />
          </mxGeometry>
        </mxCell>
        <mxCell id="tZWVkKgqLiqJ81GVMoHh-0" style="edgeStyle=orthogonalEdgeStyle;rounded=0;orthogonalLoop=1;jettySize=auto;html=1;exitX=0;exitY=0.5;exitDx=0;exitDy=0;" edge="1" parent="EY5nrAaeHHcLnrIcmBRg-3" source="L6V-S_u8wCmisRzWze7B-2" target="EY5nrAaeHHcLnrIcmBRg-6">
          <mxGeometry relative="1" as="geometry" />
        </mxCell>
        <mxCell id="tZWVkKgqLiqJ81GVMoHh-2" value="" style="edgeStyle=orthogonalEdgeStyle;rounded=0;orthogonalLoop=1;jettySize=auto;html=1;entryX=0.5;entryY=1;entryDx=0;entryDy=0;" edge="1" parent="EY5nrAaeHHcLnrIcmBRg-3" source="tZWVkKgqLiqJ81GVMoHh-1" target="L6V-S_u8wCmisRzWze7B-6">
          <mxGeometry relative="1" as="geometry" />
        </mxCell>
        <mxCell id="tZWVkKgqLiqJ81GVMoHh-1" value="ALB" style="sketch=0;outlineConnect=0;fontColor=#232F3E;gradientColor=none;fillColor=#4D27AA;strokeColor=none;dashed=0;verticalLabelPosition=bottom;verticalAlign=top;align=center;html=1;fontSize=12;fontStyle=0;aspect=fixed;pointerEvents=1;shape=mxgraph.aws4.application_load_balancer;" vertex="1" parent="EY5nrAaeHHcLnrIcmBRg-3">
          <mxGeometry x="555" y="840" width="50" height="50" as="geometry" />
        </mxCell>
        <mxCell id="tZWVkKgqLiqJ81GVMoHh-4" value="VPC endpoint" style="sketch=0;outlineConnect=0;fontColor=#232F3E;gradientColor=none;fillColor=#4D27AA;strokeColor=none;dashed=0;verticalLabelPosition=middle;verticalAlign=middle;align=right;html=1;fontSize=12;fontStyle=0;aspect=fixed;pointerEvents=1;shape=mxgraph.aws4.endpoints;strokeWidth=3;labelPosition=left;" vertex="1" parent="EY5nrAaeHHcLnrIcmBRg-3">
          <mxGeometry x="760" y="600" width="30" height="30" as="geometry" />
        </mxCell>
        <mxCell id="tZWVkKgqLiqJ81GVMoHh-5" value="VPC endpoint" style="sketch=0;outlineConnect=0;fontColor=#232F3E;gradientColor=none;fillColor=#4D27AA;strokeColor=none;dashed=0;verticalLabelPosition=middle;verticalAlign=middle;align=right;html=1;fontSize=12;fontStyle=0;aspect=fixed;pointerEvents=1;shape=mxgraph.aws4.endpoints;strokeWidth=3;labelPosition=left;" vertex="1" parent="EY5nrAaeHHcLnrIcmBRg-3">
          <mxGeometry x="760" y="360" width="30" height="30" as="geometry" />
        </mxCell>
        <mxCell id="tZWVkKgqLiqJ81GVMoHh-6" value="VPC endpoint" style="sketch=0;outlineConnect=0;fontColor=#232F3E;gradientColor=none;fillColor=#4D27AA;strokeColor=none;dashed=0;verticalLabelPosition=middle;verticalAlign=middle;align=right;html=1;fontSize=12;fontStyle=0;aspect=fixed;pointerEvents=1;shape=mxgraph.aws4.endpoints;strokeWidth=3;labelPosition=left;" vertex="1" parent="EY5nrAaeHHcLnrIcmBRg-3">
          <mxGeometry x="760" y="120" width="30" height="30" as="geometry" />
        </mxCell>
        <mxCell id="EY5nrAaeHHcLnrIcmBRg-27" style="edgeStyle=orthogonalEdgeStyle;rounded=0;orthogonalLoop=1;jettySize=auto;html=1;entryX=0;entryY=0.5;entryDx=0;entryDy=0;entryPerimeter=0;" parent="EY5nrAaeHHcLnrIcmBRg-1" source="EY5nrAaeHHcLnrIcmBRg-28" target="EY5nrAaeHHcLnrIcmBRg-33" edge="1">
          <mxGeometry relative="1" as="geometry">
            <Array as="points">
              <mxPoint x="307" y="515" />
            </Array>
          </mxGeometry>
        </mxCell>
        <mxCell id="EY5nrAaeHHcLnrIcmBRg-28" value="CloudFront" style="sketch=0;points=[[0,0,0],[0.25,0,0],[0.5,0,0],[0.75,0,0],[1,0,0],[0,1,0],[0.25,1,0],[0.5,1,0],[0.75,1,0],[1,1,0],[0,0.25,0],[0,0.5,0],[0,0.75,0],[1,0.25,0],[1,0.5,0],[1,0.75,0]];outlineConnect=0;fontColor=#232F3E;gradientColor=#945DF2;gradientDirection=north;fillColor=#5A30B5;strokeColor=#ffffff;dashed=0;verticalLabelPosition=bottom;verticalAlign=top;align=center;html=1;fontSize=12;fontStyle=0;aspect=fixed;shape=mxgraph.aws4.resourceIcon;resIcon=mxgraph.aws4.cloudfront;strokeWidth=1;" parent="EY5nrAaeHHcLnrIcmBRg-1" vertex="1">
          <mxGeometry x="282" y="620" width="50" height="50" as="geometry" />
        </mxCell>
        <mxCell id="EY5nrAaeHHcLnrIcmBRg-29" value="" style="edgeStyle=orthogonalEdgeStyle;rounded=0;orthogonalLoop=1;jettySize=auto;html=1;" parent="EY5nrAaeHHcLnrIcmBRg-1" source="EY5nrAaeHHcLnrIcmBRg-30" target="EY5nrAaeHHcLnrIcmBRg-32" edge="1">
          <mxGeometry relative="1" as="geometry" />
        </mxCell>
        <mxCell id="EY5nrAaeHHcLnrIcmBRg-30" value="WAF" style="sketch=0;points=[[0,0,0],[0.25,0,0],[0.5,0,0],[0.75,0,0],[1,0,0],[0,1,0],[0.25,1,0],[0.5,1,0],[0.75,1,0],[1,1,0],[0,0.25,0],[0,0.5,0],[0,0.75,0],[1,0.25,0],[1,0.5,0],[1,0.75,0]];outlineConnect=0;fontColor=#232F3E;gradientColor=#F54749;gradientDirection=north;fillColor=#C7131F;strokeColor=#ffffff;dashed=0;verticalLabelPosition=top;verticalAlign=bottom;align=center;html=1;fontSize=12;fontStyle=0;aspect=fixed;shape=mxgraph.aws4.resourceIcon;resIcon=mxgraph.aws4.waf;strokeWidth=1;labelPosition=center;" parent="EY5nrAaeHHcLnrIcmBRg-1" vertex="1">
          <mxGeometry x="442" y="620" width="50" height="50" as="geometry" />
        </mxCell>
        <mxCell id="EY5nrAaeHHcLnrIcmBRg-32" value="API Gateway" style="sketch=0;points=[[0,0,0],[0.25,0,0],[0.5,0,0],[0.75,0,0],[1,0,0],[0,1,0],[0.25,1,0],[0.5,1,0],[0.75,1,0],[1,1,0],[0,0.25,0],[0,0.5,0],[0,0.75,0],[1,0.25,0],[1,0.5,0],[1,0.75,0]];outlineConnect=0;fontColor=#232F3E;gradientColor=#945DF2;gradientDirection=north;fillColor=#5A30B5;strokeColor=#ffffff;dashed=0;verticalLabelPosition=bottom;verticalAlign=top;align=center;html=1;fontSize=12;fontStyle=0;aspect=fixed;shape=mxgraph.aws4.resourceIcon;resIcon=mxgraph.aws4.api_gateway;" parent="EY5nrAaeHHcLnrIcmBRg-1" vertex="1">
          <mxGeometry x="582" y="620" width="50" height="50" as="geometry" />
        </mxCell>
        <mxCell id="EY5nrAaeHHcLnrIcmBRg-33" value="Origin" style="sketch=0;points=[[0,0,0],[0.25,0,0],[0.5,0,0],[0.75,0,0],[1,0,0],[0,1,0],[0.25,1,0],[0.5,1,0],[0.75,1,0],[1,1,0],[0,0.25,0],[0,0.5,0],[0,0.75,0],[1,0.25,0],[1,0.5,0],[1,0.75,0]];outlineConnect=0;fontColor=#232F3E;gradientColor=#60A337;gradientDirection=north;fillColor=#277116;strokeColor=#ffffff;dashed=0;verticalLabelPosition=bottom;verticalAlign=top;align=center;html=1;fontSize=12;fontStyle=0;aspect=fixed;shape=mxgraph.aws4.resourceIcon;resIcon=mxgraph.aws4.s3;strokeWidth=1;" parent="EY5nrAaeHHcLnrIcmBRg-1" vertex="1">
          <mxGeometry x="407" y="490" width="50" height="50" as="geometry" />
        </mxCell>
        <mxCell id="EY5nrAaeHHcLnrIcmBRg-65" style="edgeStyle=orthogonalEdgeStyle;rounded=0;orthogonalLoop=1;jettySize=auto;html=1;entryX=0;entryY=0.5;entryDx=0;entryDy=0;entryPerimeter=0;" parent="EY5nrAaeHHcLnrIcmBRg-1" source="EY5nrAaeHHcLnrIcmBRg-67" target="EY5nrAaeHHcLnrIcmBRg-28" edge="1">
          <mxGeometry relative="1" as="geometry" />
        </mxCell>
        <mxCell id="EY5nrAaeHHcLnrIcmBRg-66" style="edgeStyle=orthogonalEdgeStyle;rounded=0;orthogonalLoop=1;jettySize=auto;html=1;entryX=0.5;entryY=1;entryDx=0;entryDy=0;entryPerimeter=0;" parent="EY5nrAaeHHcLnrIcmBRg-1" source="EY5nrAaeHHcLnrIcmBRg-67" target="EY5nrAaeHHcLnrIcmBRg-30" edge="1">
          <mxGeometry relative="1" as="geometry">
            <Array as="points">
              <mxPoint x="123" y="710" />
              <mxPoint x="467" y="710" />
            </Array>
          </mxGeometry>
        </mxCell>
        <mxCell id="EY5nrAaeHHcLnrIcmBRg-67" value="" style="sketch=0;outlineConnect=0;fontColor=#232F3E;gradientColor=none;fillColor=#232F3D;strokeColor=none;dashed=0;verticalLabelPosition=bottom;verticalAlign=top;align=center;html=1;fontSize=12;fontStyle=0;aspect=fixed;pointerEvents=1;shape=mxgraph.aws4.client;strokeWidth=3;" parent="EY5nrAaeHHcLnrIcmBRg-1" vertex="1">
          <mxGeometry x="92" y="621.28" width="50" height="48.72" as="geometry" />
        </mxCell>
        <mxCell id="EY5nrAaeHHcLnrIcmBRg-81" value="" style="edgeStyle=orthogonalEdgeStyle;rounded=0;orthogonalLoop=1;jettySize=auto;html=1;endArrow=none;" parent="EY5nrAaeHHcLnrIcmBRg-1" source="EY5nrAaeHHcLnrIcmBRg-32" target="EY5nrAaeHHcLnrIcmBRg-82" edge="1">
          <mxGeometry relative="1" as="geometry">
            <mxPoint x="631.9999999999995" y="644.9411764705883" as="sourcePoint" />
            <mxPoint x="861.9411764705883" y="489.99999999999955" as="targetPoint" />
            <Array as="points">
              <mxPoint x="610" y="540" />
            </Array>
          </mxGeometry>
        </mxCell>
        <mxCell id="EY5nrAaeHHcLnrIcmBRg-90" value="DynamoDB" style="sketch=0;points=[[0,0,0],[0.25,0,0],[0.5,0,0],[0.75,0,0],[1,0,0],[0,1,0],[0.25,1,0],[0.5,1,0],[0.75,1,0],[1,1,0],[0,0.25,0],[0,0.5,0],[0,0.75,0],[1,0.25,0],[1,0.5,0],[1,0.75,0]];outlineConnect=0;fontColor=#232F3E;gradientColor=#4D72F3;gradientDirection=north;fillColor=#3334B9;strokeColor=#ffffff;dashed=0;verticalLabelPosition=bottom;verticalAlign=top;align=center;html=1;fontSize=12;fontStyle=0;aspect=fixed;shape=mxgraph.aws4.resourceIcon;resIcon=mxgraph.aws4.dynamodb;strokeWidth=3;" parent="EY5nrAaeHHcLnrIcmBRg-1" vertex="1">
          <mxGeometry x="1360" y="460" width="50" height="50" as="geometry" />
        </mxCell>
        <mxCell id="EY5nrAaeHHcLnrIcmBRg-91" value="VPC endpoint" style="sketch=0;outlineConnect=0;fontColor=#232F3E;gradientColor=none;fillColor=#4D27AA;strokeColor=none;dashed=0;verticalLabelPosition=middle;verticalAlign=middle;align=right;html=1;fontSize=12;fontStyle=0;aspect=fixed;pointerEvents=1;shape=mxgraph.aws4.endpoints;strokeWidth=3;labelPosition=left;" parent="EY5nrAaeHHcLnrIcmBRg-1" vertex="1">
          <mxGeometry x="1180" y="450" width="30" height="30" as="geometry" />
        </mxCell>
        <mxCell id="L6V-S_u8wCmisRzWze7B-10" style="edgeStyle=orthogonalEdgeStyle;rounded=0;orthogonalLoop=1;jettySize=auto;html=1;" parent="EY5nrAaeHHcLnrIcmBRg-1" source="EY5nrAaeHHcLnrIcmBRg-82" target="L6V-S_u8wCmisRzWze7B-9" edge="1">
          <mxGeometry relative="1" as="geometry">
            <Array as="points">
              <mxPoint x="607" y="470" />
              <mxPoint x="515" y="470" />
            </Array>
          </mxGeometry>
        </mxCell>
        <mxCell id="L6V-S_u8wCmisRzWze7B-12" style="edgeStyle=orthogonalEdgeStyle;rounded=0;orthogonalLoop=1;jettySize=auto;html=1;exitX=1;exitY=1;exitDx=0;exitDy=0;entryX=0;entryY=0.5;entryDx=0;entryDy=0;entryPerimeter=0;" parent="EY5nrAaeHHcLnrIcmBRg-1" source="L6V-S_u8wCmisRzWze7B-6" target="EY5nrAaeHHcLnrIcmBRg-90" edge="1">
          <mxGeometry relative="1" as="geometry" />
        </mxCell>
        <mxCell id="tZWVkKgqLiqJ81GVMoHh-8" style="edgeStyle=orthogonalEdgeStyle;rounded=0;orthogonalLoop=1;jettySize=auto;html=1;exitX=0.5;exitY=0;exitDx=0;exitDy=0;entryX=0;entryY=0.5;entryDx=0;entryDy=0;entryPerimeter=0;" edge="1" parent="EY5nrAaeHHcLnrIcmBRg-1" source="L6V-S_u8wCmisRzWze7B-6" target="EY5nrAaeHHcLnrIcmBRg-93">
          <mxGeometry relative="1" as="geometry" />
        </mxCell>
      </root>
    </mxGraphModel>
  </diagram>
</mxfile>
